<svg width="21" height="21" viewBox="0 0 21 21" fill="none" xmlns="http://www.w3.org/2000/svg">
<path d="M17.0853 11.7299C16.6941 11.3227 16.2224 11.1049 15.7224 11.1049C15.2264 11.1049 14.7506 11.3186 14.3433 11.7259L13.0691 12.9961C12.9643 12.9396 12.8594 12.8872 12.7586 12.8348C12.6135 12.7622 12.4764 12.6937 12.3594 12.6211C11.1659 11.863 10.0812 10.8751 9.04085 9.59685C8.53681 8.95975 8.1981 8.42345 7.95213 7.87909C8.28278 7.57667 8.58923 7.26215 8.88762 6.95973C9.00053 6.84683 9.11343 6.72989 9.22634 6.61699C10.0731 5.7702 10.0731 4.67342 9.22634 3.82664L8.12552 2.72582C8.00052 2.60082 7.87148 2.47179 7.75051 2.34275C7.50858 2.09275 7.25454 1.83468 6.99244 1.59275C6.60131 1.20565 6.13356 1 5.64162 1C5.14969 1 4.67387 1.20565 4.27064 1.59275C4.26661 1.59678 4.26661 1.59678 4.26258 1.60081L2.8916 2.98389C2.37547 3.50002 2.08111 4.12906 2.01659 4.85891C1.91982 6.03634 2.26659 7.13312 2.53273 7.85087C3.18596 9.61298 4.16177 11.2461 5.61743 12.9961C7.38358 15.105 9.5086 16.7703 11.936 17.9437C12.8635 18.3832 14.1014 18.9034 15.4845 18.9921C15.5691 18.9961 15.6578 19.0002 15.7385 19.0002C16.67 19.0002 17.4522 18.6655 18.0651 18.0002C18.0692 17.9921 18.0772 17.9881 18.0813 17.98C18.2909 17.726 18.5329 17.4961 18.7869 17.2501C18.9603 17.0848 19.1377 16.9114 19.3111 16.73C19.7103 16.3147 19.92 15.8308 19.92 15.3348C19.92 14.8348 19.7063 14.355 19.299 13.9517L17.0853 11.7299ZM18.5288 15.9759C18.5248 15.9759 18.5248 15.98 18.5288 15.9759C18.3716 16.1453 18.2103 16.2985 18.0369 16.4679C17.7748 16.7179 17.5087 16.98 17.2587 17.2743C16.8514 17.7098 16.3716 17.9155 15.7425 17.9155C15.682 17.9155 15.6175 17.9155 15.557 17.9114C14.3594 17.8348 13.2465 17.3671 12.4118 16.9679C10.1296 15.863 8.12552 14.2945 6.46018 12.3066C5.08517 10.6493 4.16581 9.11701 3.55693 7.47183C3.18193 6.46779 3.04483 5.68553 3.10531 4.94762C3.14563 4.47584 3.32709 4.08471 3.66177 3.75002L5.03678 2.37501C5.23436 2.18953 5.44404 2.08872 5.64969 2.08872C5.90372 2.08872 6.10937 2.24195 6.2384 2.37098C6.24244 2.37501 6.24647 2.37904 6.2505 2.38308C6.49647 2.61292 6.73034 2.85082 6.97631 3.10486C7.10132 3.23389 7.23035 3.36292 7.35938 3.49599L8.4602 4.59681C8.88762 5.02423 8.88762 5.41939 8.4602 5.84682C8.34326 5.96375 8.23036 6.08069 8.11342 6.19359C7.77471 6.54037 7.45213 6.86296 7.10132 7.17747C7.09325 7.18554 7.08519 7.18957 7.08115 7.19764C6.73438 7.54441 6.79889 7.88313 6.87147 8.11297C6.87551 8.12506 6.87954 8.13716 6.88357 8.14926C7.16986 8.84281 7.57309 9.49604 8.186 10.2743L8.19004 10.2783C9.30295 11.6493 10.4763 12.7178 11.7707 13.5364C11.936 13.6412 12.1054 13.7259 12.2667 13.8066C12.4118 13.8791 12.5489 13.9477 12.6659 14.0203C12.682 14.0283 12.6981 14.0404 12.7143 14.0485C12.8514 14.1171 12.9804 14.1493 13.1135 14.1493C13.4481 14.1493 13.6578 13.9396 13.7264 13.8711L15.1054 12.492C15.2425 12.3549 15.4603 12.1896 15.7143 12.1896C15.9643 12.1896 16.1699 12.3469 16.2949 12.484C16.299 12.488 16.299 12.488 16.303 12.492L18.5248 14.7138C18.9401 15.1251 18.9401 15.5485 18.5288 15.9759Z" fill="#136CE2"/>
</svg>
