<svg width="18" height="18" viewBox="0 0 18 18" fill="none" xmlns="http://www.w3.org/2000/svg">
<g clip-path="url(#clip0)">
<path d="M15.8026 2.15039H2.20112C0.986965 2.15039 0 3.13736 0 4.35151V13.6476C0 14.8618 0.986965 15.8487 2.20112 15.8487H15.7989C17.013 15.8487 18 14.8618 18 13.6476V4.35523C18.0037 3.14108 17.0168 2.15039 15.8026 2.15039ZM16.9981 13.6476C16.9981 14.3068 16.4618 14.8431 15.8026 14.8431H2.20112C1.5419 14.8431 1.00559 14.3068 1.00559 13.6476V4.35523C1.00559 3.69601 1.5419 3.1597 2.20112 3.1597H15.7989C16.4581 3.1597 16.9944 3.69601 16.9944 4.35523V13.6476H16.9981Z" fill="#136CE2"/>
<path d="M11.3522 8.88425L15.7544 4.9364C15.9593 4.75018 15.9779 4.4336 15.7917 4.22504C15.6054 4.02019 15.2889 4.00157 15.0803 4.18779L9.00953 9.63658L7.82518 8.57885C7.82145 8.57513 7.81773 8.5714 7.81773 8.56768C7.79166 8.54161 7.76559 8.51926 7.73579 8.49692L2.91642 4.18407C2.70786 3.99785 2.39128 4.01647 2.20506 4.22504C2.01884 4.4336 2.03747 4.75018 2.24603 4.9364L6.70041 8.91777L2.26465 13.0705C2.06354 13.2604 2.05236 13.577 2.24231 13.7818C2.34287 13.8861 2.47694 13.942 2.61102 13.942C2.73393 13.942 2.85683 13.8973 2.95367 13.8079L7.45646 9.59561L8.67806 10.6869C8.7749 10.7725 8.89408 10.8135 9.01326 10.8135C9.13244 10.8135 9.25534 10.7688 9.34845 10.6831L10.6036 9.55837L15.0803 13.8116C15.1771 13.9047 15.3038 13.9494 15.4267 13.9494C15.5607 13.9494 15.6911 13.8973 15.7917 13.793C15.9816 13.5919 15.9742 13.2716 15.773 13.0816L11.3522 8.88425Z" fill="#136CE2"/>
</g>
<defs>
<clipPath id="clip0">
<rect width="18" height="18" fill="white"/>
</clipPath>
</defs>
</svg>
