<svg width="79" height="80" viewBox="0 0 79 80" fill="none" xmlns="http://www.w3.org/2000/svg">
<path d="M1 18.4336C1 15.1199 3.68629 12.4336 7 12.4336H68.5159C71.8296 12.4336 74.5159 15.1199 74.5159 18.4336V72.9996C74.5159 76.3133 71.8296 78.9996 68.5159 78.9996H7.00001C3.6863 78.9996 1 76.3133 1 72.9996V18.4336Z" stroke="#1D1919" stroke-width="2"/>
<path d="M8.4458 20.377H73.5286" stroke="#1D1919" stroke-width="2" stroke-linecap="round"/>
<path d="M53.656 1L18.8789 20.3774H65.5795L53.656 1Z" fill="white"/>
<path d="M77.9999 55.1572V38.2642H60.6114C60.6114 38.2642 53.1592 39.2579 53.1592 46.7107C53.1592 54.1635 60.6114 55.1572 60.6114 55.1572H77.9999Z" fill="white"/>
<path d="M18.8789 20.3774L18.3922 19.5038C17.9943 19.7255 17.7965 20.188 17.911 20.6288C18.0256 21.0696 18.4235 21.3774 18.8789 21.3774V20.3774ZM53.656 1L54.5077 0.475933C54.227 0.0198942 53.637 -0.134177 53.1692 0.126449L53.656 1ZM65.5795 20.3774V21.3774C65.9418 21.3774 66.2758 21.1814 66.4525 20.8652C66.6292 20.5489 66.6211 20.1618 66.4312 19.8533L65.5795 20.3774ZM77.9999 38.2642H78.9999C78.9999 37.7119 78.5522 37.2642 77.9999 37.2642V38.2642ZM77.9999 55.1572V56.1572C78.5522 56.1572 78.9999 55.7095 78.9999 55.1572H77.9999ZM60.6114 55.1572L60.4792 56.1485C60.523 56.1543 60.5672 56.1572 60.6114 56.1572V55.1572ZM60.6114 38.2642V37.2642C60.5672 37.2642 60.523 37.2671 60.4792 37.2729L60.6114 38.2642ZM19.3656 21.2509L54.1427 1.87355L53.1692 0.126449L18.3922 19.5038L19.3656 21.2509ZM52.8043 1.52407L64.7279 20.9014L66.4312 19.8533L54.5077 0.475933L52.8043 1.52407ZM65.5795 19.3774H18.8789V21.3774H65.5795V19.3774ZM76.9999 38.2642V55.1572H78.9999V38.2642H76.9999ZM77.9999 54.1572H60.6114V56.1572H77.9999V54.1572ZM60.6114 55.1572C60.7436 54.166 60.744 54.1661 60.7444 54.1661C60.7445 54.1661 60.7449 54.1662 60.7451 54.1662C60.7455 54.1663 60.7458 54.1663 60.746 54.1663C60.7464 54.1664 60.7464 54.1664 60.7459 54.1663C60.7449 54.1662 60.7422 54.1658 60.7378 54.1651C60.7291 54.1638 60.7137 54.1615 60.6921 54.1579C60.6489 54.1507 60.5809 54.1386 60.4918 54.1203C60.3133 54.0838 60.0515 54.0228 59.7343 53.9277C59.0967 53.7364 58.2546 53.4124 57.4204 52.884C55.7848 51.8481 54.1592 50.0271 54.1592 46.7107H52.1592C52.1592 50.8472 54.2596 53.2494 56.3502 54.5736C57.379 55.2252 58.4 55.6154 59.1596 55.8433C59.5411 55.9578 59.8615 56.0327 60.0906 56.0797C60.2052 56.1031 60.2974 56.1197 60.3633 56.1306C60.3963 56.1361 60.4227 56.1403 60.4422 56.1432C60.4519 56.1446 60.4599 56.1458 60.4661 56.1467C60.4692 56.1471 60.4718 56.1475 60.474 56.1478C60.4751 56.1479 60.4761 56.148 60.477 56.1482C60.4774 56.1482 60.478 56.1483 60.4782 56.1483C60.4787 56.1484 60.4792 56.1485 60.6114 55.1572ZM54.1592 46.7107C54.1592 43.3943 55.7848 41.5733 57.4204 40.5374C58.2546 40.009 59.0967 39.685 59.7343 39.4937C60.0515 39.3985 60.3133 39.3376 60.4918 39.3011C60.5809 39.2828 60.6489 39.2707 60.6921 39.2635C60.7137 39.2599 60.7291 39.2575 60.7378 39.2562C60.7422 39.2556 60.7449 39.2552 60.7459 39.2551C60.7464 39.255 60.7464 39.255 60.746 39.255C60.7458 39.2551 60.7455 39.2551 60.7451 39.2552C60.7449 39.2552 60.7445 39.2552 60.7444 39.2553C60.744 39.2553 60.7436 39.2554 60.6114 38.2642C60.4792 37.2729 60.4787 37.273 60.4782 37.2731C60.478 37.2731 60.4774 37.2732 60.477 37.2732C60.4761 37.2733 60.4751 37.2735 60.474 37.2736C60.4718 37.2739 60.4692 37.2743 60.4661 37.2747C60.4599 37.2756 60.4519 37.2768 60.4422 37.2782C60.4227 37.2811 60.3963 37.2852 60.3633 37.2907C60.2974 37.3017 60.2052 37.3183 60.0906 37.3417C59.8615 37.3886 59.5411 37.4636 59.1596 37.578C58.4 37.806 57.379 38.1962 56.3502 38.8478C54.2596 40.172 52.1592 42.5742 52.1592 46.7107H54.1592ZM60.6114 39.2642H77.9999V37.2642H60.6114V39.2642Z" fill="#1D1919"/>
<ellipse cx="61.1081" cy="46.2143" rx="3.47771" ry="3.47799" fill="black"/>
</svg>
