<svg width="83" height="73" viewBox="0 0 83 73" fill="none" xmlns="http://www.w3.org/2000/svg">
<path d="M1 14.9268C1 11.6131 3.68629 8.92676 7 8.92676H68.3877C71.7014 8.92676 74.3877 11.613 74.3877 14.9268V58.3952C74.3877 61.7089 71.7014 64.3952 68.3877 64.3952H7C3.68629 64.3952 1 61.7089 1 58.3952V14.9268Z" stroke="#1D1919" stroke-width="2"/>
<path d="M13.3912 1C15.3042 1 16.855 2.55077 16.855 4.46375L16.855 13.3713C16.855 15.2843 15.3042 16.835 13.3912 16.835C11.4783 16.835 9.92749 15.2843 9.92749 13.3713L9.92749 4.46375C9.92749 2.55077 11.4783 1 13.3912 1Z" fill="white" stroke="#1D1919" stroke-width="2"/>
<path d="M29.2623 1C31.1753 1 32.7261 2.55077 32.7261 4.46375L32.7261 13.3713C32.7261 15.2843 31.1753 16.835 29.2623 16.835C27.3494 16.835 25.7986 15.2843 25.7986 13.3713L25.7986 4.46375C25.7986 2.55077 27.3494 1 29.2623 1Z" fill="white" stroke="#1D1919" stroke-width="2"/>
<path d="M45.1334 1C47.0464 1 48.5972 2.55077 48.5972 4.46375L48.5972 13.3713C48.5972 15.2843 47.0464 16.835 45.1334 16.835C43.2204 16.835 41.6697 15.2843 41.6697 13.3713L41.6697 4.46375C41.6697 2.55077 43.2204 1 45.1334 1Z" fill="white" stroke="#1D1919" stroke-width="2"/>
<path d="M61.0045 1C62.9175 1 64.4683 2.55077 64.4683 4.46375L64.4683 13.3713C64.4683 15.2843 62.9175 16.835 61.0045 16.835C59.0915 16.835 57.5408 15.2843 57.5408 13.3713L57.5408 4.46375C57.5408 2.55077 59.0915 1 61.0045 1Z" fill="white" stroke="#1D1919" stroke-width="2"/>
<path d="M1.98389 22.7891H73.4038" stroke="#1D1919" stroke-width="2" stroke-linecap="round"/>
<path d="M1.98389 36.6611H73.4038" stroke="#1D1919" stroke-width="2" stroke-linecap="round"/>
<path d="M1.98389 51.5234H73.4038" stroke="#1D1919" stroke-width="2" stroke-linecap="round"/>
<path d="M22.8145 63.4131L22.8145 22.7889" stroke="#1D1919" stroke-width="2" stroke-linecap="round"/>
<path d="M51.5811 63.4131L51.5811 22.7889" stroke="#1D1919" stroke-width="2" stroke-linecap="round"/>
<path d="M61.8308 72.0003C72.9699 72.0003 82 62.9804 82 51.8537C82 40.727 72.9699 31.707 61.8308 31.707C50.6917 31.707 41.6616 40.727 41.6616 51.8537C41.6616 62.9804 50.6917 72.0003 61.8308 72.0003Z" fill="white"/>
<path d="M61.8306 71.0099C72.4219 71.0099 81.0078 62.4335 81.0078 51.8541C81.0078 41.2746 72.4219 32.6982 61.8306 32.6982C51.2393 32.6982 42.6533 41.2746 42.6533 51.8541C42.6533 62.4335 51.2393 71.0099 61.8306 71.0099Z" stroke="#1D1919" stroke-width="2"/>
<path d="M61.8307 66.0867C69.9041 66.0867 76.4489 59.5492 76.4489 51.4847C76.4489 43.4203 69.9041 36.8828 61.8307 36.8828C53.7572 36.8828 47.2124 43.4203 47.2124 51.4847C47.2124 59.5492 53.7572 66.0867 61.8307 66.0867Z" fill="white"/>
<path d="M61.8304 65.0962C69.356 65.0962 75.4568 59.0023 75.4568 51.4851C75.4568 43.9679 69.356 37.874 61.8304 37.874C54.3048 37.874 48.2041 43.9679 48.2041 51.4851C48.2041 59.0023 54.3048 65.0962 61.8304 65.0962Z" stroke="#1D1919" stroke-width="2"/>
<path d="M60.8379 43.7158V53.4466H70.9111" stroke="#1D1919" stroke-width="2" stroke-linecap="round" stroke-linejoin="round"/>
</svg>
