<svg width="50" height="74" viewBox="0 0 50 74" fill="none" xmlns="http://www.w3.org/2000/svg">
<path d="M19.804 25.5L15.8452 29.5M33.66 40.5L30.196 44" stroke="#1D1919" stroke-width="2" stroke-linecap="round"/>
<path d="M7.92773 73V64H41.5778V72.5" stroke="#1D1919" stroke-width="2"/>
<path d="M21.2886 64.5V72.5M28.2165 65V73" stroke="#1D1919" stroke-width="2"/>
<path d="M41.5776 68H28.7114" stroke="#1D1919" stroke-width="2"/>
<path d="M20.7939 68H13.866" stroke="#1D1919" stroke-width="2" stroke-linecap="round"/>
<path d="M9.90674 68H7.92654" stroke="#1D1919" stroke-width="2" stroke-linecap="round"/>
<path d="M8.92773 4.5C8.92773 2.567 10.4947 1 12.4277 1L37.0778 1C39.0108 1 40.5778 2.567 40.5778 4.5C40.5778 6.433 39.0108 8 37.0778 8L12.4277 8C10.4947 8 8.92773 6.433 8.92773 4.5Z" fill="white" stroke="#1D1919" stroke-width="2"/>
<path fill-rule="evenodd" clip-rule="evenodd" d="M38.1705 11.3605C37.8022 10.4071 37.6672 9.4215 37.6194 8.69801C37.5952 8.33136 37.5927 8.02026 37.5964 7.79823C37.5983 7.68699 37.6017 7.59745 37.6048 7.53374C37.6063 7.50187 37.6078 7.4764 37.609 7.45786L37.6105 7.43528L37.611 7.42799L37.6112 7.42537L37.6113 7.42431L37.6113 7.42385C37.6113 7.42364 37.6113 7.42343 38.6084 7.49953C39.6055 7.57562 39.6056 7.57543 39.6056 7.57524L39.605 7.58362C39.6044 7.59304 39.6035 7.609 39.6024 7.63103C39.6003 7.67512 39.5976 7.74325 39.5961 7.8315C39.5932 8.00847 39.5951 8.26368 39.6151 8.56629C39.6557 9.18132 39.7681 9.94599 40.0361 10.6398C40.3309 11.403 40.5488 11.871 40.8396 12.292C41.1302 12.7126 41.5262 13.1327 42.2322 13.7442C42.8118 14.2462 43.3985 14.4518 44.2156 14.7381C44.3095 14.771 44.4064 14.8049 44.5066 14.8405C45.4718 15.1831 46.5871 15.6402 47.7317 16.7967C48.8702 17.947 49.4349 19.2367 49.7152 20.228C49.8557 20.7248 49.9267 21.1531 49.9627 21.4626C49.9808 21.6177 49.9902 21.744 49.9951 21.8354C49.9975 21.8811 49.9988 21.9182 49.9996 21.9459L50.0002 21.9803L50.0003 21.9921L50.0004 21.9966L50.0004 21.9985V21.9993C50.0004 21.9997 50.0004 22.0001 49.0004 22.0001H48.0004V22.0009C48.0004 22.0005 48.0004 22.0001 49.0004 22.0001H50.0004V66.0001H49.0004C48.0004 66.0001 48.0004 65.9998 48.0004 65.9995V65.999L48.0004 65.9983L48.0004 65.9981L48.0004 65.9977V22.0046V22.0041L48.0004 22.0028L48.0004 22.0016L48.0002 21.9973C48 21.9904 47.9997 21.9793 47.999 21.9642C47.9987 21.9576 47.9984 21.9503 47.9979 21.9422C47.9951 21.8891 47.989 21.8044 47.9762 21.6939C47.9503 21.4722 47.8976 21.1505 47.7907 20.7722C47.5762 20.0136 47.1511 19.0532 46.3102 18.2036C45.4754 17.3601 44.6892 17.0275 43.8377 16.7253C43.7454 16.6926 43.6504 16.6597 43.5529 16.626C42.7596 16.3518 41.8085 16.023 40.9229 15.2561C40.1617 14.5968 39.6227 14.0493 39.1941 13.4287C38.7657 12.8086 38.4801 12.162 38.1705 11.3605ZM25.2479 74.0002L42.0724 74.0001V73.0001C42.0724 74.0001 42.0728 74.0001 42.0731 74.0001H42.0739L42.0756 74.0001L42.0799 74.0001L42.0917 74L42.1282 73.9994C42.1581 73.9987 42.1989 73.9975 42.2497 73.9952C42.3513 73.9905 42.4934 73.9814 42.6678 73.9638C43.0157 73.9287 43.4981 73.8589 44.0493 73.7197C45.1407 73.444 46.5686 72.8788 47.7317 71.7036C48.8939 70.5292 49.4518 69.0892 49.7237 67.9903C49.8611 67.435 49.9299 66.949 49.9646 66.5986C49.982 66.423 49.9909 66.2801 49.9955 66.1779C49.9978 66.1268 49.999 66.0858 49.9997 66.0558L50.0003 66.0194L50.0004 66.0075L50.0004 66.0033L50.0004 66.0016V66.0008C50.0004 66.0005 50.0004 66.0002 49.0004 66.0001H48.0004L48.0001 66.0128C47.9998 66.0278 47.9991 66.0532 47.9975 66.088C47.9944 66.1577 47.9878 66.2648 47.9743 66.4016C47.9471 66.6763 47.8922 67.0653 47.7822 67.5099C47.5592 68.4111 47.1274 69.471 46.3102 70.2967C45.4939 71.1215 44.4476 71.5563 43.5595 71.7806C43.121 71.8914 42.7374 71.9466 42.4668 71.974C42.3319 71.9876 42.2265 71.9941 42.158 71.9973C42.1238 71.9989 42.0989 71.9996 42.0843 71.9999L42.0724 72.0001H42.0718H42.0712H42.0702L42.0693 72.0001L24.7525 72.0001L7.93112 72.0002L7.93013 72.0002H7.92914H7.92858H7.92796L7.91609 71.9999C7.90148 71.9996 7.8766 71.9989 7.84239 71.9973C7.77388 71.9942 7.66847 71.9876 7.53362 71.974C7.26293 71.9466 6.87936 71.8914 6.44085 71.7806C5.55277 71.5563 4.50647 71.1215 3.69018 70.2967C2.87302 69.4711 2.44115 68.4111 2.21817 67.51C2.10816 67.0654 2.05326 66.6764 2.02607 66.4017C2.01253 66.2648 2.006 66.1578 2.00286 66.088C2.00129 66.0532 2.00058 66.0278 2.00025 66.0128L2.00001 65.9983L2 65.9982V65.9978V22.0046V22.0041L2.00015 21.9973C2.00041 21.9874 2.00102 21.9688 2.00244 21.9423C2.00528 21.8891 2.01135 21.8045 2.02422 21.694C2.05003 21.4723 2.10273 21.1505 2.20969 20.7723C2.42421 20.0137 2.84925 19.0533 3.69017 18.2036C4.52499 17.3601 5.31117 17.0276 6.16271 16.7254C6.25496 16.6926 6.35001 16.6598 6.44744 16.6261C7.24081 16.3518 8.19192 16.023 9.07748 15.2561C9.8387 14.5968 10.3776 14.0493 10.8063 13.4288C11.2347 12.8087 11.5203 12.1621 11.8299 11.3605C12.1982 10.4072 12.3332 9.42164 12.3809 8.69823C12.4051 8.33162 12.4076 8.02055 12.4039 7.79855C12.4021 7.68732 12.3986 7.59779 12.3955 7.53409C12.394 7.50222 12.3925 7.47676 12.3913 7.45822L12.3898 7.43565L12.3893 7.42836L12.3891 7.42573L12.389 7.42468L12.389 7.42421C12.389 7.424 12.389 7.42379 11.3919 7.49993C10.3948 7.57608 10.3948 7.57588 10.3948 7.5757L10.3953 7.58407C10.3959 7.59348 10.3968 7.60944 10.3979 7.63146C10.4 7.67554 10.4027 7.74365 10.4042 7.83188C10.4071 8.00881 10.4052 8.26397 10.3853 8.56653C10.3447 9.18145 10.2323 9.94603 9.96427 10.6398C9.66944 11.403 9.45155 11.8711 9.16073 12.2921C8.87019 12.7127 8.47421 13.1328 7.76815 13.7443C7.18857 14.2462 6.60184 14.4518 5.78477 14.7381C5.69091 14.771 5.59401 14.805 5.49373 14.8406C4.52854 15.1831 3.41325 15.6402 2.26866 16.7967C1.13017 17.9471 0.565495 19.2367 0.285159 20.2281C0.144692 20.7248 0.0736823 21.1531 0.0376388 21.4626C0.0195791 21.6178 0.0101825 21.7441 0.00529397 21.8354C0.00284797 21.8812 0.00152516 21.9182 0.000813484 21.9459L0.000139892 21.9803L2.70605e-05 21.9921L5.78165e-06 21.9966L0 21.9985V21.9994C0 21.9998 0 22.0002 1 22.0002H0V66.0002H1C0 66.0002 0 66.0005 0 66.0009V66.0016L4.35114e-06 66.0033L2.12789e-05 66.0076L0.000116229 66.0194L0.000715673 66.0559C0.00136018 66.0858 0.00257939 66.1268 0.00487965 66.178C0.00947666 66.2801 0.0184131 66.423 0.0358002 66.5987C0.0704758 66.949 0.139306 67.435 0.276724 67.9904C0.548622 69.0892 1.10645 70.5293 2.26865 71.7036C3.43172 72.8788 4.85969 73.4441 5.95104 73.7197C6.50225 73.859 6.98468 73.9287 7.33257 73.9639C7.50701 73.9815 7.64903 73.9906 7.75063 73.9952C7.80147 73.9976 7.84232 73.9988 7.87217 73.9995L7.90863 74.0001L7.92048 74.0002L7.92477 74.0002L7.9265 74.0002H7.92727C7.92762 74.0002 7.92796 74.0002 7.92796 73.0002V74.0002H25.2479ZM1 66.0002H2V65.9982L2 65.9981L2 65.999L2 65.9995C2 65.9998 2 66.0002 1 66.0002ZM1 22.0002H2V22.0041L1.99999 22.0046L2 22.0028L2 22.0016L2 22.0009C2 22.0006 2 22.0002 1 22.0002Z" fill="black"/>
<rect y="1.42151" width="29.6313" height="16.0824" rx="1" transform="matrix(0.70344 0.710755 -0.70344 0.710755 21.0043 17.7784)" stroke="#1D1919" stroke-width="2" stroke-linejoin="round"/>
<path d="M19.6232 36.8884C19.2347 37.281 19.2347 37.9174 19.6232 38.3099C20.0117 38.7025 20.6415 38.7025 21.03 38.3099L19.6232 36.8884ZM27.3249 30.5281L28.0283 29.8174L27.3249 29.1066L26.6214 29.8174L27.3249 30.5281ZM29.8085 33.0376L30.6045 32.4346L30.562 32.3774L30.512 32.3268L29.8085 33.0376ZM26.0997 36.785L25.3962 37.4958L25.4553 37.5555L25.5234 37.6044L26.0997 36.785ZM22.8071 32.0367C22.4186 31.6441 21.7887 31.6441 21.4002 32.0367C21.0117 32.4292 21.0117 33.0657 21.4002 33.4582L22.8071 32.0367ZM21.0924 33.7691C20.7039 33.3766 20.0741 33.3766 19.6856 33.7691C19.2971 34.1617 19.2971 34.7981 19.6856 35.1906L21.0924 33.7691ZM24.0909 39.6418C24.4794 40.0343 25.1093 40.0343 25.4978 39.6418C25.8863 39.2493 25.8863 38.6128 25.4978 38.2203L24.0909 39.6418ZM21.03 38.3099L28.0283 31.2389L26.6214 29.8174L19.6232 36.8884L21.03 38.3099ZM26.6214 31.2389L29.1051 33.7483L30.512 32.3268L28.0283 29.8174L26.6214 31.2389ZM29.8085 33.0376C29.0126 33.6406 29.0123 33.6402 29.0121 33.6398C29.012 33.6397 29.0117 33.6394 29.0115 33.6391C29.0112 33.6387 29.0109 33.6382 29.0106 33.6378C29.01 33.637 29.0094 33.6363 29.009 33.6356C29.0081 33.6344 29.0075 33.6336 29.0071 33.6331C29.0065 33.6322 29.007 33.6329 29.0085 33.6351C29.0116 33.6395 29.0186 33.6499 29.0287 33.6657C29.0491 33.6975 29.0809 33.7499 29.1169 33.8191C29.1907 33.9607 29.2732 34.155 29.3203 34.375C29.4067 34.7783 29.3871 35.2759 28.8723 35.8006L30.2852 37.2159C31.3677 36.1127 31.463 34.875 31.2649 33.9499C31.1698 33.5057 31.0103 33.1376 30.8776 32.8828C30.8104 32.7538 30.7478 32.6496 30.6996 32.5742C30.6754 32.5365 30.6547 32.5056 30.6385 32.4822C30.6304 32.4706 30.6234 32.4607 30.6177 32.4527C30.6148 32.4488 30.6123 32.4452 30.6101 32.4422C30.609 32.4407 30.6079 32.4393 30.607 32.438C30.6065 32.4374 30.6061 32.4368 30.6057 32.4362C30.6055 32.4359 30.6051 32.4355 30.605 32.4354C30.6047 32.435 30.6045 32.4346 29.8085 33.0376ZM28.8723 35.8006C28.3588 36.3239 27.8535 36.3553 27.4338 36.2712C27.2077 36.2259 27.0075 36.144 26.8618 36.0708C26.7904 36.0349 26.7362 36.0032 26.7031 35.9827C26.6867 35.9725 26.6759 35.9654 26.6711 35.9622C26.6687 35.9606 26.6679 35.96 26.6686 35.9605C26.669 35.9608 26.6698 35.9614 26.671 35.9622C26.6716 35.9626 26.6723 35.9631 26.6732 35.9637C26.6736 35.964 26.674 35.9643 26.6745 35.9646C26.6747 35.9648 26.6751 35.9651 26.6752 35.9651C26.6755 35.9654 26.6759 35.9657 26.0997 36.785C25.5234 37.6044 25.5238 37.6047 25.5242 37.605C25.5243 37.6051 25.5247 37.6053 25.525 37.6055C25.5256 37.606 25.5262 37.6064 25.5268 37.6068C25.5281 37.6077 25.5295 37.6087 25.531 37.6098C25.5341 37.6119 25.5376 37.6144 25.5416 37.6172C25.5496 37.6227 25.5595 37.6295 25.5713 37.6374C25.5949 37.6532 25.626 37.6735 25.6641 37.6971C25.7402 37.7442 25.8455 37.8053 25.9755 37.8706C26.2325 37.9998 26.6026 38.1541 27.0467 38.2431C27.9671 38.4275 29.2014 38.3205 30.2852 37.2159L28.8723 35.8006ZM26.8031 36.0743L22.8071 32.0367L21.4002 33.4582L25.3962 37.4958L26.8031 36.0743ZM19.6856 35.1906L24.0909 39.6418L25.4978 38.2203L21.0924 33.7691L19.6856 35.1906Z" fill="#1D1919"/>
</svg>
