<svg width="72" height="72" viewBox="0 0 72 72" fill="none" xmlns="http://www.w3.org/2000/svg">
<path d="M36 70.5C55.0538 70.5 70.5 55.0538 70.5 36C70.5 16.9462 55.0538 1.5 36 1.5C16.9462 1.5 1.5 16.9462 1.5 36C1.5 55.0538 16.9462 70.5 36 70.5Z" stroke="#1D1919" stroke-width="2"/>
<path d="M18.2471 47.0732C18.2471 47.0732 27.418 54.4575 36.241 54.4575C45.064 54.4575 53.863 47.6401 53.863 47.6401" stroke="#1D1919" stroke-width="2" stroke-linecap="round"/>
<path d="M53.1201 26C53.1201 26 50.8027 24 48.5731 24C46.3436 24 44.1201 25.8465 44.1201 25.8465" stroke="#1D1919" stroke-width="2" stroke-linecap="round"/>
<path d="M28.1201 26C28.1201 26 25.8027 24 23.5731 24C21.3436 24 19.1201 25.8465 19.1201 25.8465" stroke="#1D1919" stroke-width="2" stroke-linecap="round"/>
</svg>
