<svg width="226" height="412" viewBox="0 0 226 412" fill="none" xmlns="http://www.w3.org/2000/svg">
<g clip-path="url(#clip0)">
<path fill-rule="evenodd" clip-rule="evenodd" d="M67.6296 134.516C67.6296 149.088 64.7251 160.347 58.916 168.294C56.2697 172.098 52.6183 175.195 48.3171 177.284C44.0159 179.373 39.2114 180.382 34.3712 180.213C23.8056 180.213 15.6407 176.69 9.77476 169.597C3.90876 162.504 1.00977 152.293 1.00977 138.779V106.979H24.7826V137.443C24.7826 147.303 26.2238 153.303 29.1054 155.49C30.4784 156.454 32.1594 156.953 33.8739 156.905C35.5444 156.997 37.197 156.54 38.5466 155.612C39.8962 154.684 40.8581 153.344 41.2666 151.822C42.4505 148.477 42.9817 143.12 42.9817 135.817V0H67.5606V134.518L67.6296 134.516ZM91.4879 178.154V0H145.551V23.4064H116.084V75.2283H144.145V98.101H116.084V154.765H146.718V178.152L91.4879 178.154ZM166.373 178.154V0H220.505V23.4064H190.97V75.2283H219.03V98.101H190.97V154.765H221.603V178.152L166.373 178.154Z" fill="white"/>
<path fill-rule="evenodd" clip-rule="evenodd" d="M26.2767 365.732L2.50391 187.916H24.716L34.7193 268.259L40.9281 324.797H41.5458L46.8456 268.227L55.1978 187.917H76.9467L55.1124 365.733L26.2767 365.732ZM93.1694 365.732V187.916H144.506V211.239H116.564V262.983H143.184V285.808H116.564V342.329H145.552V365.684L93.1694 365.732ZM161.143 315.725V299.849H183.286V317.719C183.286 327.61 184.041 334.591 185.499 338.629C186.956 342.666 189.649 344.677 193.663 344.677C195.394 344.814 197.122 344.397 198.568 343.494C200.013 342.592 201.09 341.257 201.622 339.707C202.949 336.394 203.606 331 203.595 323.526C203.751 316.863 202.588 310.232 200.165 303.967C197.388 297.693 193.662 291.826 189.102 286.547L177.782 272.988C172.695 266.931 168.543 260.233 165.447 253.092C162.36 245.467 160.846 237.361 160.988 229.206C160.988 214.505 163.423 203.594 168.295 196.474C173.166 189.353 181.594 185.777 193.577 185.745C205.458 185.745 213.508 189.904 217.727 198.222C221.945 206.54 224.055 218.684 224.056 234.652V245.686H202.495V232.953C202.495 224.374 201.848 218.198 200.553 214.424C199.284 210.659 196.848 208.81 193.212 208.81C191.607 208.716 190.008 209.068 188.614 209.82C187.221 210.572 186.093 211.692 185.373 213.04C183.761 215.871 182.989 220.118 182.989 225.779C182.79 230.403 183.62 235.015 185.425 239.322C187.847 243.925 190.797 248.267 194.224 252.27L206.831 268.129C212.821 275.483 217.646 283.61 221.157 292.258C224.466 300.813 226.104 309.858 225.993 318.958C225.993 335.59 223.586 347.885 218.773 355.844C213.97 363.774 205.514 367.775 193.491 367.775C181.467 367.775 173.045 363.319 168.329 354.457C163.613 345.594 161.211 332.678 161.211 315.725H161.143Z" fill="white"/>
<path fill-rule="evenodd" clip-rule="evenodd" d="M0 411.493V376.187H5.71156C6.57545 376.133 7.43424 376.348 8.15435 376.799C8.87447 377.25 9.41555 377.911 9.69344 378.68C10.536 381.08 10.9193 383.602 10.8258 386.127V386.867C10.9498 389.584 10.5904 392.302 9.76238 394.909C9.53697 395.711 9.02677 396.418 8.31585 396.912C7.60493 397.406 6.73573 397.658 5.85142 397.627H3.79345V411.493H0ZM3.78764 393.14H5.09096C5.89705 393.14 6.4118 392.689 6.65169 391.821C6.96609 390.171 7.09271 388.495 7.02946 386.819V386.128C7.06685 384.629 6.93467 383.13 6.63515 381.656C6.37778 380.772 5.88055 380.321 5.12593 380.321H3.78764V393.189V393.14ZM13.3752 411.493V376.187H21.7275V380.819H17.1629V391.097H21.5022V395.621H17.1629V406.881H21.8965V411.497L13.3752 411.493ZM29.9437 394.893L28.7259 394.813V411.493H24.9382V376.187H31.216C31.7601 376.149 32.3063 376.229 32.8118 376.422C33.3173 376.614 33.7683 376.914 34.1296 377.298C34.8474 378.204 35.2864 379.278 35.3989 380.402C35.6297 382.131 35.733 383.872 35.7078 385.614C35.7494 387.235 35.588 388.855 35.227 390.441C35.1346 390.915 34.9334 391.365 34.6373 391.76C34.3411 392.154 33.9571 392.483 33.5119 392.725C34.3698 392.929 34.97 393.748 35.3125 395.184C35.7443 398.146 35.9106 401.138 35.8097 404.127C35.8097 408.641 35.8612 411.07 35.9641 411.413H32.1561C32.0648 411.145 32.0192 406.925 32.0192 398.753C32.0927 397.699 31.959 396.641 31.6249 395.633C31.4664 395.367 31.2308 395.149 30.9454 395.004C30.66 394.859 30.3366 394.793 30.0127 394.813L29.9437 394.893ZM28.7433 390.647H30.2701C30.4755 390.665 30.6821 390.631 30.869 390.549C31.0558 390.467 31.2161 390.34 31.3335 390.181C31.6254 389.687 31.79 389.137 31.8143 388.573C31.8997 387.817 31.9512 386.675 31.9512 385.131V384.921C32.0199 383.658 31.9046 382.392 31.6084 381.157C31.488 380.867 31.2667 380.623 30.9803 380.466C30.6939 380.308 30.3591 380.246 30.0302 380.288H28.7433V390.58V390.647ZM38.7466 401.569V398.353H42.3488V401.892C42.2919 403.283 42.4129 404.676 42.7091 406.041C42.949 406.845 43.3947 407.231 44.0474 407.231C44.3516 407.24 44.649 407.145 44.8852 406.965C45.1214 406.785 45.2808 406.531 45.3342 406.25C45.6006 405.197 45.7104 404.115 45.6605 403.034C45.6854 401.722 45.4945 400.415 45.0943 399.157C44.6571 397.935 44.0518 396.772 43.2937 395.697L41.4582 393.011C40.6044 391.781 39.9296 390.451 39.4517 389.054C38.9458 387.523 38.7026 385.927 38.7311 384.325C38.6012 382.124 39.006 379.924 39.915 377.891C40.3013 377.199 40.8952 376.627 41.6236 376.247C42.352 375.867 43.183 375.695 44.0144 375.752C44.8709 375.701 45.7213 375.918 46.4321 376.369C47.1429 376.82 47.6739 377.48 47.9419 378.245C48.7363 380.576 49.0848 383.021 48.9713 385.467V387.653H45.5411V385.127C45.5873 383.893 45.4837 382.657 45.2322 381.444C45.0263 380.705 44.632 380.334 44.0318 380.334C43.7527 380.327 43.4786 380.405 43.2501 380.556C43.0216 380.706 42.8506 380.922 42.7625 381.17C42.459 381.98 42.3251 382.838 42.3682 383.696C42.3383 384.611 42.4715 385.524 42.7625 386.398C43.1538 387.292 43.6361 388.148 44.2028 388.955L46.2423 392.172C47.2384 393.68 48.0219 395.302 48.5731 396.999C49.118 398.721 49.3839 400.511 49.3617 402.307C49.5009 404.795 49.1046 407.284 48.1963 409.625C47.8552 410.37 47.2763 410.998 46.5393 411.422C45.8022 411.846 44.9433 412.045 44.0804 411.993C43.184 412.029 42.2992 411.792 41.5597 411.315C40.8201 410.839 40.266 410.149 39.981 409.352C39.089 406.878 38.6939 404.271 38.8156 401.663L38.7466 401.569ZM55.59 401.682C55.5321 403.131 55.6415 404.582 55.9163 406.009C56.1397 406.829 56.602 407.248 57.2886 407.248C57.9752 407.248 58.4375 406.83 58.6483 405.993C58.927 404.571 59.0419 403.126 58.9911 401.682V385.227C59.0337 383.996 58.9186 382.764 58.6483 381.559C58.4249 380.803 57.9966 380.417 57.3449 380.417C56.6933 380.417 56.2475 380.803 55.9853 381.559C55.6668 382.752 55.534 383.982 55.591 385.21V401.681L55.59 401.682ZM62.7943 401.682C62.9423 404.313 62.4983 406.943 61.4909 409.403C61.1572 410.18 60.5767 410.842 59.8281 411.299C59.0795 411.757 58.1991 411.988 57.3061 411.96C56.4121 411.982 55.532 411.749 54.7818 411.293C54.0316 410.836 53.4465 410.177 53.1037 409.403C52.0681 406.95 51.6115 404.316 51.7654 401.682V385.597C51.7654 379.161 53.6291 375.943 57.3566 375.943C58.2389 375.903 59.1128 376.12 59.8589 376.563C60.605 377.007 61.1868 377.655 61.5249 378.42C62.4951 380.72 62.928 383.188 62.7943 385.658V401.743V401.682ZM66.2245 411.558V376.187H69.1915L74.4738 397.371L74.199 387.717V376.168H77.6292V411.49H74.9371L69.4984 389.566L69.7043 398.831V411.491L66.2245 411.558ZM88.0588 400.943L86.3437 383.249L84.817 400.943H88.0588ZM80.2194 411.559L83.804 376.189H88.8125L92.6001 411.495H89.0669L88.4667 405.189H84.4363L83.9051 411.495L80.2194 411.559ZM95.1932 411.559V376.187H98.9809V406.925H103.783V411.494L95.1932 411.559Z" fill="white"/>
<path fill-rule="evenodd" clip-rule="evenodd" d="M122.534 400.877L120.818 383.087L119.257 400.877H122.534ZM114.575 411.493L118.194 376.106H123.341L127.183 411.493H123.581L122.981 405.188H118.881L118.281 411.493H114.575ZM129.274 401.536V398.32H132.944V401.871C132.886 403.263 133.007 404.656 133.305 406.021C133.544 406.825 133.99 407.228 134.664 407.228C134.973 407.237 135.275 407.144 135.516 406.964C135.758 406.785 135.924 406.53 135.985 406.247C136.241 405.192 136.351 404.111 136.311 403.03C136.338 401.712 136.142 400.398 135.729 399.137C135.282 397.913 134.665 396.749 133.893 395.677L132.024 392.974C131.173 391.739 130.488 390.41 129.984 389.018C129.477 387.482 129.234 385.88 129.263 384.273C129.119 382.043 129.53 379.813 130.464 377.758C130.863 377.062 131.47 376.489 132.21 376.109C132.95 375.729 133.791 375.559 134.632 375.619C135.499 375.562 136.361 375.775 137.084 376.226C137.807 376.677 138.35 377.34 138.629 378.112C139.437 380.446 139.791 382.898 139.675 385.349V387.553H136.124V385.012C136.166 383.776 136.057 382.54 135.798 381.328C135.592 380.573 135.18 380.203 134.58 380.203C134.297 380.199 134.02 380.279 133.788 380.432C133.557 380.586 133.384 380.804 133.293 381.055C132.983 381.864 132.849 382.723 132.899 383.581C132.86 384.496 132.993 385.411 133.293 386.283C133.691 387.182 134.178 388.044 134.75 388.857L136.843 392.074C137.849 393.581 138.644 395.203 139.209 396.901C139.759 398.622 140.031 400.411 140.016 402.208C140.156 404.71 139.747 407.212 138.815 409.559C138.462 410.309 137.87 410.939 137.122 411.363C136.373 411.787 135.503 411.984 134.63 411.927C133.725 411.967 132.829 411.732 132.078 411.256C131.327 410.78 130.76 410.089 130.462 409.286C129.554 406.805 129.153 404.186 129.278 401.565L129.274 401.536ZM142.327 401.536V398.32H145.981V401.871C145.922 403.263 146.043 404.656 146.341 406.021C146.581 406.825 147.044 407.228 147.701 407.228C148.01 407.24 148.313 407.148 148.556 406.968C148.799 406.788 148.964 406.532 149.021 406.247C149.286 405.193 149.396 404.111 149.348 403.03C149.373 401.713 149.182 400.4 148.782 399.137C148.327 397.916 147.711 396.753 146.946 395.677L145.076 392.974C144.213 391.746 143.527 390.415 143.037 389.017C142.515 387.484 142.266 385.881 142.3 384.272C142.159 382.041 142.576 379.81 143.518 377.757C143.915 377.059 144.521 376.485 145.262 376.105C146.002 375.725 146.845 375.556 147.686 375.618C148.551 375.566 149.411 375.782 150.132 376.232C150.854 376.683 151.399 377.343 151.682 378.111C152.481 380.447 152.835 382.897 152.728 385.349V387.552H149.161V385.011C149.207 383.776 149.104 382.54 148.852 381.328C148.629 380.572 148.235 380.202 147.635 380.202C147.349 380.198 147.07 380.278 146.836 380.431C146.602 380.584 146.426 380.802 146.331 381.054C146.021 381.863 145.887 382.722 145.937 383.58C145.903 384.496 146.042 385.411 146.349 386.282C146.732 387.185 147.215 388.047 147.79 388.856L149.883 392.073C150.889 393.58 151.684 395.202 152.25 396.9C152.807 398.62 153.079 400.41 153.056 402.208C153.205 404.709 152.796 407.213 151.855 409.558C151.456 410.29 150.842 410.901 150.086 411.318C149.33 411.735 148.463 411.941 147.587 411.912C146.71 411.883 145.86 411.621 145.137 411.156C144.414 410.691 143.847 410.042 143.503 409.285C142.61 406.801 142.215 404.183 142.338 401.565L142.327 401.536ZM156.049 411.493V376.107H159.908V411.494L156.049 411.493ZM163.355 401.536V398.32H167.009V401.871C166.945 403.264 167.072 404.659 167.387 406.021C167.61 406.825 168.072 407.228 168.725 407.228C169.034 407.241 169.338 407.148 169.58 406.968C169.823 406.788 169.988 406.532 170.046 406.247C170.31 405.193 170.42 404.111 170.372 403.03C170.397 401.713 170.206 400.4 169.806 399.137C169.352 397.916 168.735 396.753 167.97 395.677L166.135 393.035C165.278 391.804 164.592 390.474 164.095 389.079C163.582 387.544 163.333 385.942 163.358 384.334C163.217 382.103 163.635 379.872 164.576 377.819C164.974 377.121 165.58 376.547 166.32 376.167C167.06 375.787 167.903 375.618 168.744 375.68C169.61 375.628 170.469 375.844 171.191 376.294C171.913 376.745 172.457 377.404 172.741 378.173C173.549 380.507 173.903 382.959 173.787 385.41V387.614H170.22V385.073C170.266 383.838 170.162 382.602 169.911 381.39C169.687 380.634 169.293 380.264 168.693 380.264C168.408 380.262 168.13 380.342 167.896 380.495C167.663 380.648 167.486 380.865 167.39 381.116C167.086 381.926 166.952 382.784 166.995 383.642C166.961 384.558 167.101 385.473 167.407 386.344C167.797 387.246 168.286 388.109 168.864 388.918L170.939 392.135C171.945 393.642 172.741 395.264 173.306 396.962C173.864 398.682 174.136 400.472 174.112 402.269C174.26 404.774 173.849 407.28 172.905 409.627C172.506 410.36 171.892 410.97 171.136 411.387C170.38 411.804 169.513 412.01 168.636 411.981C167.76 411.953 166.91 411.69 166.187 411.225C165.464 410.76 164.897 410.111 164.553 409.354C163.66 406.87 163.265 404.253 163.387 401.634L163.355 401.536ZM178.141 411.493V380.771H175.174V376.106H184.851V380.771H182.003V411.493H178.141ZM193.786 400.861L192.07 383.072L190.51 400.861H193.786ZM185.844 411.494L189.463 376.107H194.61L198.452 411.494H194.85L194.25 405.188H190.15L189.602 411.494H185.844ZM201.075 411.494V376.107H204.094L209.479 397.339L209.188 387.685V376.107H212.618V411.494H209.891L204.355 389.522L204.578 398.802V411.493L201.075 411.494ZM217.764 411.494V380.771H214.797V376.106H224.454V380.771H221.606V411.493L217.764 411.494Z" fill="white"/>
</g>
<defs>
<clipPath id="clip0">
<rect width="226" height="412" fill="white"/>
</clipPath>
</defs>
</svg>
