<svg width="66" height="65" viewBox="0 0 66 65" fill="none" xmlns="http://www.w3.org/2000/svg">
<rect x="1" y="1" width="39.7889" height="8.94472" rx="4.47236" stroke="white" stroke-width="2"/>
<rect x="16.5879" y="10.2861" width="39.7889" height="8.94472" rx="4.47236" stroke="white" stroke-width="2"/>
<path d="M49.4169 23.0339V23.0339C49.4169 20.9357 47.716 19.2349 45.6179 19.2349H12.2711C9.70677 19.2349 7.62793 21.3137 7.62793 23.8781V23.8781C7.62793 26.4425 9.70678 28.5213 12.2712 28.5213H30.0149" stroke="white" stroke-width="2"/>
<path d="M29.849 28.5205H11.9395C9.55828 28.5205 7.62793 30.4509 7.62793 32.8321V32.8321C7.62793 35.2133 9.55828 37.1436 11.9395 37.1436H23.8792" stroke="white" stroke-width="2"/>
<path d="M24.2108 37.1431H12.6028C9.85526 37.1431 7.62793 39.3704 7.62793 42.1179V42.1179C7.62793 44.8655 9.85526 47.0928 12.6028 47.0928H24.045" stroke="white" stroke-width="2"/>
<path d="M28.8541 56.7099H12.437C9.78101 56.7099 7.62793 54.5568 7.62793 51.9008V51.9008C7.62793 49.2449 9.78101 47.0918 12.437 47.0918H23.7134" stroke="white" stroke-width="2"/>
<path d="M65 43.2781C65 54.7224 55.7218 64 44.2764 64C32.8309 64 23.5527 54.7224 23.5527 43.2781C23.5527 31.8338 32.8309 22.5562 44.2764 22.5562C55.7218 22.5562 65 31.8338 65 43.2781Z" stroke="white" stroke-width="2"/>
<path d="M45.053 35.5261C45.5995 35.5615 46.2025 35.6236 46.8621 35.7122C47.5217 35.8008 47.9457 35.8539 48.1341 35.8717L48.0776 37.8121C46.6831 37.564 45.4487 37.44 44.3745 37.44C43.1685 37.44 42.311 37.626 41.8022 37.9982C41.2934 38.3703 41.039 38.9463 41.039 39.726V40.2576C41.039 40.7184 41.0861 41.0728 41.1803 41.3209C41.2934 41.569 41.4913 41.7905 41.7739 41.9854C42.0754 42.1626 42.5466 42.3399 43.1873 42.5171L44.9682 43.0221C46.0612 43.3234 46.8998 43.6601 47.484 44.0322C48.087 44.3866 48.511 44.8385 48.756 45.3879C49.001 45.9372 49.1235 46.6549 49.1235 47.541V47.6739C49.1235 48.9144 48.8031 49.8979 48.1624 50.6245C47.5405 51.3333 46.504 51.7852 45.053 51.9801V54.2927H42.9329V52.113C42.3864 52.0953 41.7928 52.0421 41.152 51.9535C40.5302 51.8649 39.9271 51.7675 39.3429 51.6611L39.3995 49.7207C40.8317 50.0219 42.066 50.1726 43.1025 50.1726C44.4217 50.1726 45.3545 49.9865 45.901 49.6144C46.4475 49.2422 46.7208 48.6663 46.7208 47.8866V47.3549C46.7208 46.9473 46.6548 46.6284 46.5229 46.398C46.4098 46.1499 46.1742 45.9372 45.8162 45.76C45.477 45.5651 44.9587 45.3702 44.2615 45.1752L42.5089 44.6702C41.4724 44.3689 40.6809 44.0499 40.1344 43.7132C39.5879 43.3588 39.2016 42.9069 38.9754 42.3576C38.7493 41.7905 38.6362 41.0285 38.6362 40.0716V39.9386C38.6362 38.6273 38.9754 37.6172 39.6539 36.9083C40.3323 36.1818 41.4253 35.7388 42.9329 35.5793V33.3198H45.053V35.5261Z" fill="white"/>
<path d="M49.9145 28.21C56.0173 30.4941 60.3618 36.3789 60.3618 43.2784C60.3618 46.3808 59.4833 49.278 57.9616 51.735M37.9748 58.0814C32.223 55.6302 28.1909 49.9251 28.1909 43.2784C28.1909 40.2455 29.0304 37.4087 30.4898 34.9876" stroke="white" stroke-width="2" stroke-linecap="round"/>
</svg>
