<svg width="73" height="49" viewBox="0 0 73 49" fill="none" xmlns="http://www.w3.org/2000/svg">
<rect x="1" y="1" width="71" height="47" rx="3" stroke="white" stroke-width="2"/>
<path d="M1.35205 8.61523H70.5669" stroke="white" stroke-width="2"/>
<path d="M1.35205 16.6924H70.5669" stroke="white" stroke-width="2"/>
<path d="M37.8521 29.0771L64.3483 29.0772" stroke="white" stroke-width="2" stroke-linecap="round"/>
<path d="M37.8521 35.5386L51.3706 35.5386" stroke="white" stroke-width="2" stroke-linecap="round"/>
<path d="M20.4674 36.3952L19.737 35.6141L19.0066 36.3952C17.9056 37.5726 16.338 38.3076 14.5957 38.3076C11.2646 38.3076 8.57031 35.6179 8.57031 32.3076C8.57031 28.9973 11.2646 26.3076 14.5957 26.3076C16.338 26.3076 17.9056 27.0426 19.0066 28.22L19.737 29.0012L20.4674 28.22C21.5684 27.0426 23.136 26.3076 24.8782 26.3076C28.2094 26.3076 30.9036 28.9973 30.9036 32.3076C30.9036 35.6179 28.2094 38.3076 24.8782 38.3076C23.136 38.3076 21.5684 37.5726 20.4674 36.3952Z" stroke="white" stroke-width="2"/>
</svg>
