<svg width="93" height="54" viewBox="0 0 93 54" fill="none" xmlns="http://www.w3.org/2000/svg">
<path d="M8.17114 24.1912C9.57978 23.5291 11.6401 22.2285 11.6401 22.2285L14.7438 31.9963L16.524 26.8385C16.524 26.8385 15.8227 25.8631 15.5654 25.1497C15.3674 24.6005 15.2459 23.6891 15.2459 23.6891C15.2459 23.6891 15.2459 22.2285 17.4368 22.2285C19.8559 22.2285 19.8559 23.6891 19.8559 23.6891C19.8559 23.6891 19.7083 24.6035 19.4908 25.1497C19.2036 25.8712 18.441 26.8385 18.441 26.8385L20.3124 31.9963L23.4162 22.2285C23.4162 22.2285 25.4973 23.5457 26.9307 24.1912C28.1083 24.7214 28.2116 24.8458 29.4411 25.241C30.7191 25.6518 32.0234 25.9127 32.8187 26.8385C33.4898 27.6197 33.8229 29.2577 33.8229 29.2577C33.8229 29.2577 31.5622 30.4806 30.0345 31.0834C28.5399 31.6732 26.6817 31.9963 26.1091 32.3158C24.7838 33.0554 24.2042 33.0917 23.1423 34.8262C22.3135 36.18 22.2751 38.7972 22.2751 38.7972C22.2751 38.7972 19.3293 39.0826 17.4368 39.0711C13.6429 39.0479 11.3662 38.8469 7.80599 37.793C5.20933 37.0244 1.64403 35.6478 1.41587 35.1001C1.1877 34.5523 1.1011 33.2678 1.05068 32.0876C1.00579 31.0369 0.930234 30.4247 1.142 29.3946C1.37014 28.2848 1.5528 27.5688 2.32874 26.7472C3.10469 25.9257 4.61093 25.5605 4.61093 25.5605C4.61093 25.5605 6.82301 24.8249 8.17114 24.1912Z" stroke="white" stroke-width="2" stroke-linecap="round" stroke-linejoin="round"/>
<path d="M24.2874 10.0416C24.2874 15.2246 21.0281 18.992 17.4823 18.992C13.9366 18.992 10.6772 15.2246 10.6772 10.0416C10.6772 8.82153 10.7254 7.60203 10.9077 6.48843C11.0909 5.36941 11.3999 4.42139 11.8783 3.70453C13.0753 1.91097 15.3515 1 17.4823 1C19.6291 1 21.9114 2.0093 23.1253 3.87695C24.0646 5.32221 24.2874 7.61364 24.2874 10.0416Z" stroke="white" stroke-width="2" stroke-linecap="round" stroke-linejoin="round"/>
<path d="M84.4416 24.1912C83.033 23.5291 80.9727 22.2285 80.9727 22.2285L77.8689 31.9963L76.0888 26.8385C76.0888 26.8385 76.7901 25.8631 77.0474 25.1497C77.2454 24.6005 77.3669 23.6891 77.3669 23.6891C77.3669 23.6891 77.3669 22.2285 75.176 22.2285C72.7568 22.2285 72.7568 23.6891 72.7568 23.6891C72.7568 23.6891 72.9045 24.6035 73.122 25.1497C73.4092 25.8712 74.1718 26.8385 74.1718 26.8385L72.3004 31.9963L69.1966 22.2285C69.1966 22.2285 67.1155 23.5457 65.6821 24.1912C64.5045 24.7214 64.4012 24.8458 63.1717 25.241C61.8937 25.6518 60.5894 25.9127 59.7941 26.8385C59.123 27.6197 58.7899 29.2577 58.7899 29.2577C58.7899 29.2577 61.0506 30.4806 62.5783 31.0834C64.0729 31.6732 65.9311 31.9963 66.5037 32.3158C67.829 33.0554 68.4086 33.0917 69.4705 34.8262C70.2993 36.18 70.3377 38.7972 70.3377 38.7972C70.3377 38.7972 73.2835 39.0826 75.176 39.0711C78.9699 39.0479 81.2466 38.8469 84.8068 37.793C87.4035 37.0244 90.9688 35.6478 91.1969 35.1001C91.4251 34.5523 91.5117 33.2678 91.5621 32.0876C91.607 31.0369 91.6826 30.4247 91.4708 29.3946C91.2426 28.2848 91.06 27.5688 90.2841 26.7472C89.5081 25.9257 88.0019 25.5605 88.0019 25.5605C88.0019 25.5605 85.7898 24.8249 84.4416 24.1912Z" stroke="white" stroke-width="2" stroke-linecap="round" stroke-linejoin="round"/>
<path d="M68.3254 10.0416C68.3254 15.2246 71.5847 18.992 75.1305 18.992C78.6762 18.992 81.9355 15.2246 81.9355 10.0416C81.9355 8.82153 81.8874 7.60203 81.7051 6.48843C81.5219 5.36941 81.2129 4.42139 80.7345 3.70453C79.5375 1.91097 77.2613 1 75.1305 1C72.9837 1 70.7014 2.0093 69.4875 3.87695C68.5482 5.32221 68.3254 7.61364 68.3254 10.0416Z" stroke="white" stroke-width="2" stroke-linecap="round" stroke-linejoin="round"/>
<path d="M58.7536 32.8113C56.8908 31.9357 54.1662 30.2158 54.1662 30.2158L50.0617 43.1329L47.7077 36.3122C47.7077 36.3122 48.635 35.0223 48.9752 34.0789C49.2372 33.3525 49.3977 32.1473 49.3977 32.1473C49.3977 32.1473 49.3977 30.2158 46.5005 30.2158H46.4762C43.5789 30.2158 43.5789 32.1473 43.5789 32.1473C43.5789 32.1473 43.7395 33.3525 44.0015 34.0789C44.3417 35.0223 45.269 36.3122 45.269 36.3122L42.915 43.1329L38.8105 30.2158C38.8105 30.2158 36.0859 31.9357 34.2231 32.8113C32.4403 33.6493 29.515 34.6221 29.515 34.6221C29.515 34.6221 27.5231 35.105 26.497 36.1915C25.4709 37.278 25.2294 38.2248 24.9277 39.6924C24.6476 41.0546 24.7475 41.8641 24.8069 43.2536C24.8736 44.8144 24.9881 46.5131 25.2898 47.2374C25.5916 47.9617 30.3064 49.7821 33.7402 50.7986C38.4483 52.1923 41.459 52.4581 46.4762 52.4887H46.5005C51.5177 52.4581 54.5284 52.1923 59.2364 50.7986C62.6703 49.7821 67.3851 47.9617 67.6869 47.2374C67.9886 46.5131 68.1031 44.8144 68.1698 43.2536C68.2292 41.8641 68.3291 41.0546 68.049 39.6924C67.7473 38.2248 67.5058 37.278 66.4797 36.1915C65.4535 35.105 63.4617 34.6221 63.4617 34.6221C63.4617 34.6221 60.5364 33.6493 58.7536 32.8113Z" stroke="white" stroke-width="2" stroke-linecap="round" stroke-linejoin="round"/>
<path d="M37.0272 14.101C37.0272 21.0558 41.4132 26.2595 46.3488 26.2595C51.2844 26.2595 55.6704 21.0558 55.6704 14.101C55.6704 12.4813 55.6067 10.8483 55.3614 9.35011C55.1153 7.84647 54.6959 6.54272 54.0278 5.54174C52.3693 3.05668 49.2426 1.82178 46.3488 1.82178C43.4221 1.82178 40.2916 3.19517 38.6161 5.77302C37.3159 7.77355 37.0272 10.8956 37.0272 14.101Z" stroke="white" stroke-width="2" stroke-linecap="round" stroke-linejoin="round"/>
</svg>
