<svg width="73" height="65" viewBox="0 0 73 65" fill="none" xmlns="http://www.w3.org/2000/svg">
<path d="M31.0752 54.1362V63.9998" stroke="white" stroke-width="2"/>
<path d="M41.7607 54.1357V63.9993" stroke="white" stroke-width="2"/>
<path d="M25.4858 63.999L47.1856 63.999" stroke="white" stroke-width="2" stroke-linecap="round"/>
<rect x="1" y="1" width="71" height="53" rx="3" stroke="white" stroke-width="2"/>
<path d="M1 41H72" stroke="white" stroke-width="2"/>
<path d="M26.3531 18.7535C26.3531 20.6657 24.8029 22.2159 22.8907 22.2159C20.9784 22.2159 19.4282 20.6657 19.4282 18.7535C19.4282 16.8412 20.9784 15.291 22.8907 15.291C24.8029 15.291 26.3531 16.8412 26.3531 18.7535Z" stroke="white" stroke-width="2"/>
<path d="M28.1414 28.4648C28.1414 25.5653 25.791 23.2148 22.8915 23.2148C19.9921 23.2148 17.6416 25.5653 17.6416 28.4648" stroke="white" stroke-width="2"/>
<rect x="14.4414" y="11.353" width="17.1622" height="17.1622" rx="4" stroke="white" stroke-width="2"/>
<path d="M38.853 16.9414H58.6177" stroke="white" stroke-width="2" stroke-linecap="round"/>
<path d="M38.853 23.5293H58.6177" stroke="white" stroke-width="2" stroke-linecap="round"/>
</svg>
