<svg width="60" height="60" viewBox="0 0 60 60" fill="none" xmlns="http://www.w3.org/2000/svg">
<path d="M8.61832 49.1104C8.61832 49.1104 8.08375 52.0504 6.74735 53.6541C5.41094 55.2578 2.60449 57.5297 2.60449 57.5297C2.60449 57.5297 5.81187 59.267 9.68744 58.0643C13.563 56.8615 15.9685 54.8569 15.9685 54.8569" stroke="white" stroke-width="2"/>
<path d="M8.79139 49.7788C3.9578 44.598 1 37.6444 1 30C1 13.9837 13.9837 1 30 1C46.0163 1 59 13.9837 59 30C59 46.0163 46.0163 59 30 59C24.5793 59 19.506 57.5128 15.1659 54.9241" stroke="white" stroke-width="2"/>
<path d="M31.7314 17.3742C32.5602 17.4284 33.4747 17.5233 34.475 17.6588C35.4753 17.7943 36.1183 17.8756 36.4041 17.9027L36.3184 20.8704C34.2035 20.491 32.3315 20.3013 30.7025 20.3013C28.8734 20.3013 27.573 20.5859 26.8014 21.155C26.0297 21.7242 25.6439 22.605 25.6439 23.7975V24.6106C25.6439 25.3152 25.7154 25.8573 25.8583 26.2367C26.0297 26.6161 26.3298 26.9549 26.7585 27.2531C27.2158 27.5241 27.9303 27.7951 28.902 28.0661L31.6028 28.8385C33.2604 29.2993 34.5322 29.8142 35.4181 30.3834C36.3327 30.9254 36.9757 31.6165 37.3473 32.4567C37.7188 33.2969 37.9046 34.3945 37.9046 35.7496V35.9529C37.9046 37.8501 37.4187 39.3543 36.447 40.4655C35.5039 41.5495 33.932 42.2407 31.7314 42.5388V46.0756H28.5162V42.7421C27.6873 42.7149 26.7871 42.6336 25.8154 42.4981C24.8723 42.3626 23.9577 42.2136 23.0717 42.0509L23.1575 39.0832C25.3295 39.544 27.2015 39.7743 28.7734 39.7743C30.7739 39.7743 32.1886 39.4898 33.0174 38.9206C33.8463 38.3515 34.2607 37.4706 34.2607 36.2781V35.4651C34.2607 34.8417 34.1606 34.3539 33.9606 34.0015C33.7891 33.6221 33.4319 33.2969 32.8888 33.0259C32.3744 32.7277 31.5885 32.4296 30.531 32.1315L27.8731 31.3591C26.3012 30.8983 25.1009 30.4105 24.2721 29.8955C23.4433 29.3535 22.8574 28.6624 22.5144 27.8222C22.1715 26.9549 22 25.7895 22 24.326V24.1227C22 22.1172 22.5144 20.5723 23.5433 19.4882C24.5722 18.377 26.2298 17.6995 28.5162 17.4556V14H31.7314V17.3742Z" fill="white"/>
</svg>
