<svg width="108" height="32" viewBox="0 0 108 32" fill="none" xmlns="http://www.w3.org/2000/svg">
<path fill-rule="evenodd" clip-rule="evenodd" d="M3.78313 31.9814H104.138C104.634 31.9817 105.126 31.884 105.585 31.6941C106.044 31.5041 106.461 31.2256 106.813 30.8744C107.164 30.5232 107.443 30.1062 107.633 29.6472C107.823 29.1883 107.921 28.6964 107.921 28.1996V3.7818C107.921 3.28503 107.823 2.79311 107.633 2.33416C107.443 1.8752 107.164 1.45821 106.813 1.107C106.461 0.755792 106.044 0.477258 105.585 0.287314C105.126 0.0973696 104.634 -0.000261061 104.138 5.24266e-07H3.78313C3.28636 -0.000261061 2.79441 0.0973696 2.33539 0.287314C1.87636 0.477258 1.45927 0.755792 1.10794 1.107C0.756608 1.45821 0.477927 1.8752 0.287822 2.33416C0.0977163 2.79311 -8.73203e-05 3.28503 5.84971e-08 3.7818V28.1996C-8.73203e-05 28.6964 0.0977163 29.1883 0.287822 29.6472C0.477927 30.1062 0.756608 30.5232 1.10794 30.8744C1.45927 31.2256 1.87636 31.5041 2.33539 31.6941C2.79441 31.884 3.28636 31.9817 3.78313 31.9814ZM106.984 29.3711C107.137 28.9995 107.215 28.6013 107.214 28.1993L107.215 28.196L107.232 3.77819C107.233 3.37433 107.154 2.97435 106.999 2.60116C106.845 2.22797 106.618 1.88891 106.333 1.60339C106.047 1.31788 105.708 1.09153 105.335 0.937298C104.961 0.783069 104.561 0.703996 104.157 0.704608H3.80038C2.98501 0.706192 2.20351 1.03094 1.62713 1.60768C1.05076 2.18443 0.726521 2.96614 0.725466 3.78152V28.1993C0.726426 28.6021 0.806732 29.0007 0.961797 29.3725C1.11686 29.7442 1.34365 30.0818 1.6292 30.3658C1.91475 30.6499 2.25347 30.8749 2.62601 31.028C2.99854 31.1812 3.3976 31.2594 3.80038 31.2583H104.155C104.557 31.2592 104.956 31.1808 105.327 31.0274C105.699 30.874 106.036 30.6487 106.321 30.3645C106.605 30.0802 106.83 29.7426 106.984 29.3711Z" fill="#A6A6A6"/>
<path d="M9.74805 4.81763V27.136L21.0024 15.9768L9.74805 4.81763Z" fill="url(#paint0_linear)"/>
<path d="M24.0247 12.9805L19.4815 10.3578L9.74805 4.73462V4.81575L21.0024 15.973L24.0247 12.9805Z" fill="url(#paint1_linear)"/>
<path d="M9.74805 27.1355V27.2167L19.4822 21.5962L24.0247 18.9735L21.0024 15.9763L9.74805 27.1355Z" fill="url(#paint2_linear)"/>
<path d="M24.0283 12.979L21.0059 15.9761L24.0283 18.9733L29.2199 15.9761L24.0283 12.979Z" fill="url(#paint3_linear)"/>
<path d="M80.5994 20.339C80.2013 20.3439 79.8066 20.2641 79.4417 20.1049C79.09 19.947 78.7865 19.6987 78.5619 19.3854H78.4914C78.5371 19.7429 78.5607 20.1029 78.5619 20.4633V23.1339H77.5797V13.7303H78.3777L78.5107 14.6187H78.5579C78.7802 14.2898 79.0843 14.0244 79.4403 13.8487C79.8028 13.6851 80.1972 13.6043 80.5948 13.612C80.9734 13.5909 81.3516 13.6599 81.6984 13.8133C82.0451 13.9667 82.3506 14.2001 82.5898 14.4944C83.0506 15.24 83.2938 16.0996 83.2918 16.9761C83.2898 17.8526 83.0427 18.7111 82.5784 19.4546C82.3407 19.7471 82.0376 19.9796 81.6935 20.1334C81.3494 20.2872 80.9739 20.3578 80.5975 20.3397L80.5994 20.339ZM80.4571 14.4465C80.1911 14.4218 79.923 14.4586 79.6734 14.5541C79.4239 14.6496 79.1997 14.8012 79.0181 14.9971C78.6785 15.5159 78.5182 16.1316 78.5619 16.75V16.9688C78.5031 17.6532 78.6628 18.3387 79.0181 18.9266C79.198 19.1335 79.4244 19.2947 79.6787 19.3971C79.933 19.4996 80.208 19.5402 80.4811 19.5157C80.7406 19.5241 80.998 19.466 81.2287 19.3468C81.4594 19.2276 81.6557 19.0513 81.799 18.8348C82.1462 18.2725 82.3126 17.6173 82.2758 16.9575C82.3175 16.3021 82.1506 15.6503 81.799 15.0955C81.6468 14.8845 81.4444 14.7147 81.2102 14.6014C80.9759 14.4881 80.7171 14.4349 80.4571 14.4465ZM85.5702 20.22H84.5874V11.0059H85.5702V20.22ZM91.2226 20.22L91.0271 19.2963H90.9799C90.7269 19.6442 90.3952 19.9273 90.0117 20.1222C89.6296 20.2778 89.2191 20.3515 88.8068 20.3383C88.2574 20.3705 87.7164 20.1927 87.2932 19.8409C87.1051 19.6587 86.9587 19.4378 86.8641 19.1935C86.7695 18.9492 86.729 18.6873 86.7453 18.4258C86.7453 17.1154 87.7935 16.4282 89.89 16.3643L90.9919 16.3284V15.9261C91.0256 15.5216 90.9084 15.1188 90.6628 14.7956C90.5235 14.6638 90.3578 14.5631 90.1766 14.5003C89.9954 14.4374 89.803 14.4139 89.612 14.4312C88.9705 14.4573 88.343 14.6273 87.776 14.9286L87.4741 14.1765C87.8065 13.998 88.1597 13.8608 88.5255 13.7682C88.8996 13.6703 89.2845 13.6205 89.6712 13.6199C90.2889 13.5701 90.9029 13.7541 91.3915 14.1353C91.595 14.3564 91.7498 14.6177 91.8461 14.9023C91.9425 15.1869 91.9782 15.4886 91.9508 15.7878V20.2173H91.2193L91.2226 20.22ZM89.0016 19.5277C89.2632 19.5426 89.5251 19.5058 89.7725 19.4194C90.0199 19.333 90.2478 19.1988 90.4433 19.0243C90.6238 18.8387 90.7637 18.6174 90.8539 18.3747C90.9441 18.1319 90.9828 17.873 90.9673 17.6145V17.028L89.9838 17.0692C89.3989 17.0508 88.8185 17.1761 88.2934 17.4343C88.1243 17.539 87.9868 17.6877 87.8956 17.8644C87.8043 18.0411 87.7628 18.2393 87.7753 18.4378C87.7652 18.5884 87.789 18.7395 87.8449 18.8798C87.9008 19.02 87.9875 19.146 88.0985 19.2484C88.3555 19.4482 88.6766 19.5475 89.0016 19.5277ZM92.5214 13.7297H93.5754L94.9965 17.431C95.2312 18.0272 95.4251 18.6386 95.577 19.261H95.6242C95.6756 19.0593 95.7831 18.7147 95.9467 18.227C96.1103 17.7393 96.6463 16.2402 97.5547 13.7297H98.6094L95.8198 21.1203C95.6328 21.7121 95.2995 22.2471 94.8508 22.6758C94.4674 22.9861 93.9854 23.1487 93.4923 23.1339C93.1931 23.1341 92.8948 23.1004 92.6032 23.0335V22.2462C92.8438 22.296 93.089 22.3198 93.3346 22.3174C93.6675 22.3148 93.99 22.2016 94.2516 21.9958C94.5132 21.79 94.6989 21.5031 94.7797 21.1802L95.1408 20.2565L92.5214 13.7297ZM62.3893 14.3328C62.7009 14.5457 62.9529 14.8348 63.1212 15.1725C63.2895 15.5103 63.3685 15.8855 63.3507 16.2624C63.333 16.6394 63.2191 17.0055 63.0199 17.326C62.8206 17.6465 62.5426 17.9107 62.2124 18.0933C62.1065 18.1719 62.0181 18.2716 61.9526 18.386C61.8872 18.5005 61.8461 18.6272 61.832 18.7583C61.8402 18.8766 61.8765 18.9913 61.9379 19.0927C61.9994 19.1941 62.0841 19.2794 62.1851 19.3415L62.674 19.7205C63.2725 20.2233 63.8138 20.6848 63.8138 21.6218C63.8138 22.8979 62.5782 24.1873 60.2434 24.1873C58.275 24.1873 57.3247 23.251 57.3247 22.2455C57.3379 21.9019 57.4415 21.5679 57.625 21.2772C57.8086 20.9864 58.0656 20.7493 58.3701 20.5897C59.1749 20.1844 60.0625 19.9705 60.9636 19.9646C60.7195 19.7174 60.5744 19.3892 60.5559 19.0422C60.5595 18.8571 60.6049 18.6753 60.6889 18.5103C60.5386 18.5242 60.3897 18.5375 60.254 18.5375C59.9649 18.552 59.6758 18.5078 59.4041 18.4075C59.1325 18.3073 58.8839 18.1532 58.6734 17.9544C58.4629 17.7556 58.2948 17.5162 58.1793 17.2507C58.0637 16.9852 58.0031 16.6991 58.001 16.4096C58.0079 16.0619 58.089 15.7198 58.2388 15.4061C58.3885 15.0923 58.6036 14.8141 58.8695 14.5902C59.5663 14.0619 60.4276 13.7974 61.3007 13.8433H64.0936L63.2246 14.3321H62.3834L62.3893 14.3328ZM61.4251 20.3609C61.3216 20.3486 61.2174 20.3439 61.1132 20.347C60.6304 20.356 60.1509 20.4293 59.6874 20.5651C59.3685 20.6413 59.0826 20.8183 58.8722 21.0698C58.6618 21.3214 58.5382 21.6341 58.5197 21.9616C58.5197 22.9251 59.4567 23.6181 60.9097 23.6181C62.2117 23.6181 62.9047 22.9923 62.9047 22.1511C62.9053 21.4595 62.4571 21.0944 61.4251 20.3609ZM61.8188 17.7814C62.0583 17.5087 62.1799 17.1522 62.1572 16.7899C62.1572 15.8124 61.5741 14.2922 60.4476 14.2922C60.2663 14.2947 60.0877 14.3359 59.9237 14.4132C59.7598 14.4906 59.6144 14.6021 59.4972 14.7404C59.2852 15.0311 59.1795 15.3859 59.198 15.7453C59.198 16.655 59.73 18.1618 60.8957 18.1618C61.2399 18.1537 61.5688 18.0181 61.8188 17.7814ZM53.8422 20.1442C53.4131 20.1587 52.9854 20.0867 52.5847 19.9325C52.1839 19.7782 51.8184 19.5448 51.5098 19.2463C51.2012 18.9477 50.9558 18.5901 50.7884 18.1947C50.621 17.7993 50.5349 17.3742 50.5352 16.9449C50.5434 16.4962 50.6415 16.0537 50.8236 15.6436C51.0057 15.2335 51.2682 14.8641 51.5955 14.5571C51.9228 14.2501 52.3084 14.0118 52.7293 13.8563C53.1502 13.7009 53.5981 13.6313 54.0464 13.6519C54.4709 13.6425 54.8929 13.7185 55.2874 13.8754C55.6819 14.0323 56.0409 14.267 56.343 14.5653C56.6451 14.8637 56.8841 15.2197 57.0459 15.6122C57.2077 16.0048 57.289 16.4259 57.2849 16.8505C57.2827 17.295 57.191 17.7346 57.0154 18.143C56.8397 18.5514 56.5836 18.9202 56.2623 19.2275C55.941 19.5348 55.5612 19.7743 55.1454 19.9317C54.7296 20.089 54.2864 20.1611 53.8422 20.1435V20.1442ZM55.536 19.0463C55.8317 18.6023 55.9746 18.0739 55.9429 17.5414C55.9429 16.3484 55.3736 14.0715 53.6925 14.0715C53.2441 14.0754 52.8117 14.2391 52.473 14.533C52.2522 14.7447 52.0817 15.0031 51.9738 15.2892C51.8659 15.5754 51.8233 15.8821 51.8492 16.1868C51.8492 17.5274 52.5142 19.7365 54.1541 19.7365C54.4223 19.7365 54.6869 19.6741 54.9268 19.5541C55.1668 19.4342 55.3755 19.2601 55.5366 19.0456L55.536 19.0463ZM46.4961 20.1442C46.0669 20.1588 45.6391 20.0869 45.2383 19.9327C44.8375 19.7784 44.4718 19.5451 44.1632 19.2465C43.8545 18.948 43.6092 18.5903 43.4417 18.1948C43.2742 17.7994 43.1881 17.3743 43.1884 16.9449C43.1967 16.4962 43.2948 16.0538 43.477 15.6437C43.6591 15.2337 43.9216 14.8642 44.2489 14.5573C44.5762 14.2503 44.9617 14.0121 45.3826 13.8565C45.8035 13.701 46.2512 13.6314 46.6995 13.6519C47.124 13.6425 47.5461 13.7185 47.9406 13.8754C48.3351 14.0323 48.6941 14.267 48.9962 14.5653C49.2983 14.8637 49.5373 15.2197 49.6991 15.6122C49.8609 16.0048 49.9421 16.4259 49.938 16.8505C49.9359 17.295 49.8444 17.7345 49.6688 18.1429C49.4932 18.5513 49.2371 18.9202 48.9159 19.2275C48.5947 19.5348 48.2149 19.7743 47.7992 19.9317C47.3834 20.0891 46.9403 20.1611 46.4961 20.1435V20.1442ZM48.1905 19.0463C48.4859 18.6021 48.6288 18.0739 48.5974 17.5414C48.5974 16.3484 48.0275 14.0715 46.3471 14.0715C45.8987 14.0755 45.4662 14.2391 45.1275 14.533C44.9068 14.7447 44.7364 15.0031 44.6285 15.2893C44.5207 15.5755 44.4784 15.8821 44.5044 16.1868C44.5044 17.5274 45.1694 19.7365 46.8092 19.7365C47.0772 19.736 47.3414 19.6733 47.5811 19.5534C47.8207 19.4335 48.0293 19.2597 48.1905 19.0456V19.0463ZM42.1537 19.9314L40.2046 20.3809C39.4623 20.5167 38.7106 20.594 37.9562 20.6123C34.195 20.6123 32.7646 17.846 32.7646 15.6794C32.7646 13.0361 34.7949 10.5842 38.2701 10.5842C38.9747 10.5855 39.6759 10.6817 40.3548 10.8702C41.0021 11.0362 41.6124 11.3227 42.1537 11.7147L41.0231 12.7914L40.5464 12.8997L40.8868 12.3545C40.5184 11.9477 40.0681 11.6234 39.5656 11.4028C39.0631 11.1822 38.5196 11.0702 37.9708 11.0743C35.8176 11.0743 34.1957 12.7102 34.1957 15.0949C34.1751 15.7409 34.2846 16.3846 34.5179 16.9874C34.7511 17.5902 35.1033 18.14 35.5534 18.604C36.0034 19.0679 36.5422 19.4366 37.1377 19.6881C37.7331 19.9395 38.3732 20.0686 39.0196 20.0677C39.6139 20.0823 40.2041 19.966 40.7485 19.7272V17.5327L38.691 17.6418L39.781 17.0553H42.6697L42.3159 17.3958C42.2793 17.4205 42.2483 17.4526 42.2249 17.4901C42.2014 17.5275 42.1859 17.5695 42.1796 17.6132C42.1656 17.7362 42.1523 18.1319 42.1523 18.2675V19.93L42.1537 19.9314Z" fill="#F9F9F9"/>
<path d="M66.6965 19.5388C66.2469 19.4976 66.1526 19.4164 66.1526 18.8845V11.1752C66.1526 11.1459 66.1572 11.116 66.1599 11.0874C66.2151 10.6106 66.3513 10.5288 66.7736 10.2834H64.8246L63.8018 10.7742H64.8439V19.1883C64.8439 19.4603 64.79 19.5016 64.4762 19.9099H66.8881L67.3922 19.6106C67.1607 19.5827 66.9266 19.5694 66.6965 19.5441V19.5388ZM72.2413 19.6638C72.093 19.7449 71.9439 19.84 71.7956 19.9072C71.3811 20.086 70.9331 20.1738 70.4817 20.1645C69.8397 20.1935 69.2062 20.0077 68.6815 19.6365C68.2431 19.3027 67.8896 18.8701 67.6498 18.3739C67.41 17.8778 67.2907 17.332 67.3016 16.7811C67.2937 16.3707 67.3684 15.963 67.5211 15.582C67.6737 15.201 67.9011 14.8545 68.1901 14.563C68.4791 14.2716 68.8237 14.0411 69.2033 13.8852C69.583 13.7293 69.9901 13.6513 70.4005 13.6556C70.8923 13.6488 71.376 13.7802 71.7969 14.0347C72.2703 14.3455 72.6084 14.824 72.7433 15.374L69.5639 16.66L68.522 16.7412C68.8598 18.4595 70.0234 19.4603 71.3095 19.4603C71.8904 19.4424 72.4577 19.2799 72.96 18.9875L72.2413 19.6638ZM70.9697 15.6306C71.2264 15.5362 71.3615 15.4551 71.3615 15.2656C71.318 14.9418 71.1578 14.6449 70.9111 14.4307C70.6645 14.2165 70.3481 14.0996 70.0214 14.1018C69.7927 14.1151 69.5692 14.1755 69.3649 14.279C69.1605 14.3825 68.9797 14.5271 68.8337 14.7036C68.6877 14.8801 68.5796 15.0848 68.5163 15.305C68.4529 15.5251 68.4355 15.7559 68.4653 15.9831C68.4653 16.2132 68.4926 16.4566 68.5065 16.7013L70.9697 15.6306ZM73.5472 13.7481V14.6411H73.4381V13.7481H73.143V13.6556H73.8425V13.7481H73.5472ZM74.7648 14.6411V13.7401H74.7601L74.4848 14.6411H74.3997L74.1224 13.7401H74.1192V14.6411H74.0206V13.6556H74.1896L74.4403 14.4536L74.6877 13.6556H74.8585V14.6411H74.7648Z" fill="#F9F9F9"/>
<path d="M35.4712 7.92982H34.7936C34.7535 7.66073 34.6889 7.39585 34.6007 7.13848H33.6232C33.5305 7.39496 33.4637 7.66005 33.4237 7.92982H32.7866C32.7866 7.87485 32.9513 7.42353 33.2807 6.57589C33.4779 6.12117 33.643 5.65321 33.7748 5.17543H34.5728C34.6931 5.64446 34.8426 6.10553 35.0203 6.55594C35.1978 7.00453 35.3483 7.46331 35.4712 7.92982ZM34.4937 6.73282C34.3527 6.34567 34.232 5.95148 34.1319 5.55182H34.098C34.098 5.60679 33.9732 6.00045 33.7236 6.73282H34.4937ZM38.1997 7.92982H37.677C37.5157 7.60481 37.3206 7.29768 37.0951 7.01347C36.8098 6.64824 36.5763 6.24545 36.4009 5.81647H36.367C36.4004 6.09455 36.4181 6.37429 36.4201 6.65437C36.4201 7.00282 36.4299 7.42752 36.4494 7.92848H35.9287C35.95 7.49136 35.9606 7.01102 35.9606 6.48745C35.9606 5.97275 35.95 5.53475 35.9287 5.17344H36.5571C36.6916 5.49332 36.8673 5.79422 37.0798 6.0685C37.3387 6.41748 37.5534 6.79721 37.7189 7.19899H37.7508C37.7189 6.91791 37.7021 6.63533 37.7003 6.35245C37.7003 5.97031 37.6905 5.5782 37.671 5.1761H38.203C38.183 5.52588 38.173 5.96388 38.173 6.49011C38.173 7.01634 38.1819 7.49624 38.1997 7.92982ZM41.2666 6.45687C41.2721 6.84218 41.135 7.21594 40.8815 7.50622C40.7469 7.65729 40.58 7.77603 40.3931 7.85364C40.2062 7.93124 40.0043 7.96568 39.8023 7.95442C39.5935 7.95442 39.3053 7.946 38.9378 7.92915C38.956 7.50311 38.9653 7.02277 38.9657 6.48812C38.9657 5.97475 38.9564 5.53673 38.9378 5.17409H39.3082C39.3689 5.17409 39.4591 5.17209 39.5788 5.1681C39.6985 5.16411 39.7783 5.16212 39.8136 5.16212C40.0147 5.14358 40.2175 5.16796 40.4084 5.23365C40.5994 5.29934 40.7743 5.40485 40.9215 5.54317C41.1504 5.79178 41.2749 6.11894 41.2692 6.45687H41.2666ZM40.6887 6.54797C40.6963 6.29837 40.612 6.05467 40.452 5.86303C40.3597 5.76567 40.2469 5.69016 40.1217 5.64207C39.9965 5.59397 39.8621 5.5745 39.7284 5.58506C39.645 5.58677 39.5618 5.5932 39.4791 5.60434C39.4928 5.88674 39.4999 6.18156 39.5003 6.48879C39.5003 6.82616 39.5075 7.16043 39.5217 7.49159C39.6121 7.5097 39.7041 7.51882 39.7963 7.51885C39.923 7.52877 40.0502 7.5083 40.1674 7.45914C40.2845 7.40998 40.3882 7.33357 40.4699 7.23623C40.6189 7.03832 40.6961 6.79558 40.6887 6.54797ZM44.0941 7.92982H43.4677C43.3798 7.60772 43.2534 7.29737 43.0913 7.00547C43.0402 6.94421 42.9751 6.89624 42.9014 6.86567C42.8278 6.83509 42.7478 6.82283 42.6684 6.82993C42.5864 6.82993 42.5081 6.82993 42.4336 6.82993C42.4336 7.19257 42.4401 7.55854 42.4529 7.92783H41.8644C41.8826 7.50179 41.8919 7.02143 41.8923 6.48678C41.8923 5.97341 41.883 5.53541 41.8644 5.17277H42.2302C42.2745 5.17277 42.3631 5.17077 42.4961 5.16678C42.6291 5.16279 42.7537 5.1608 42.8699 5.1608C43.5171 5.1608 43.841 5.38246 43.8414 5.82579C43.8439 5.99203 43.7907 6.15432 43.6904 6.28686C43.59 6.41941 43.4482 6.51459 43.2875 6.55728V6.5892C43.4511 6.64665 43.5855 6.76606 43.6619 6.9217C43.8308 7.24654 43.9753 7.58351 44.0941 7.92982ZM43.3008 5.98339C43.3008 5.70276 43.1203 5.56245 42.7595 5.56245C42.6418 5.56106 42.5242 5.57086 42.4084 5.59172C42.4239 5.81028 42.4317 6.09532 42.4317 6.44688C42.5095 6.44688 42.5746 6.45088 42.6311 6.45088C43.0775 6.45088 43.3008 6.29505 43.3008 5.98339ZM47.1272 6.50208C47.1403 6.89955 46.997 7.28632 46.7281 7.57936C46.6043 7.71702 46.4524 7.82646 46.2826 7.90023C46.1127 7.97401 45.9291 8.0104 45.744 8.00696C45.5693 8.01091 45.3958 7.978 45.2347 7.9104C45.0736 7.8428 44.9285 7.74202 44.809 7.61461C44.6833 7.48154 44.5854 7.32485 44.5208 7.15362C44.4562 6.98239 44.4262 6.80003 44.4326 6.61713C44.4195 6.21964 44.5627 5.83285 44.8316 5.53985C44.9553 5.40221 45.1071 5.29278 45.2768 5.219C45.4465 5.14522 45.6301 5.10882 45.8151 5.11225C45.9897 5.1083 46.1632 5.14113 46.3243 5.20861C46.4854 5.27609 46.6305 5.37671 46.7501 5.50393C46.8759 5.63691 46.9741 5.79358 47.0388 5.96482C47.1035 6.13606 47.1336 6.31846 47.1272 6.50141V6.50208ZM46.5433 6.56327C46.5552 6.30488 46.4751 6.05063 46.3172 5.84574C46.2518 5.7598 46.1672 5.69026 46.0703 5.64259C45.9733 5.59493 45.8666 5.57045 45.7586 5.5711C45.6553 5.57195 45.5537 5.59757 45.4624 5.64582C45.3711 5.69408 45.2928 5.76355 45.2339 5.84839C45.0844 6.05046 45.0082 6.29744 45.0178 6.54864C45.0064 6.80678 45.0869 7.0606 45.2452 7.26483C45.3105 7.35092 45.3948 7.42066 45.4917 7.46856C45.5885 7.51645 45.6951 7.54119 45.8031 7.5408C45.9065 7.53986 46.0082 7.51405 46.0995 7.46556C46.1908 7.41706 46.2692 7.3473 46.3279 7.26217C46.4769 7.06015 46.5529 6.81347 46.5433 6.5626V6.56327ZM48.3235 7.93049H47.725C47.7431 7.49337 47.7524 7.01301 47.7529 6.48944C47.7529 5.97474 47.7436 5.53674 47.725 5.17543H48.3235C48.3053 5.53009 48.296 5.96809 48.2955 6.48944C48.296 7.02099 48.3055 7.50112 48.3241 7.92982L48.3235 7.93049ZM51.3904 6.45754C51.3959 6.84285 51.2588 7.21659 51.0054 7.50687C50.8708 7.65798 50.7039 7.77676 50.517 7.85437C50.3301 7.93197 50.1282 7.9664 49.9261 7.95508C49.7173 7.95508 49.4291 7.94667 49.0616 7.92982C49.0798 7.50378 49.0891 7.02344 49.0895 6.48879C49.0895 5.97542 49.0802 5.5374 49.0616 5.17476H49.432C49.4927 5.17476 49.5829 5.17276 49.7026 5.16877C49.8223 5.16478 49.9022 5.16279 49.9374 5.16279C50.1385 5.14425 50.3413 5.16863 50.5323 5.23432C50.7232 5.30001 50.8981 5.4055 51.0453 5.54382C51.2733 5.79261 51.3971 6.11945 51.3911 6.45687L51.3904 6.45754ZM50.8126 6.54864C50.8202 6.29903 50.7359 6.05531 50.5758 5.8637C50.4836 5.7663 50.3707 5.69077 50.2455 5.64268C50.1204 5.59458 49.986 5.57512 49.8523 5.58573C49.7688 5.58743 49.6856 5.59386 49.6029 5.60501C49.6166 5.88741 49.6235 6.18221 49.6235 6.48944C49.6235 6.82681 49.6306 7.1611 49.6448 7.49226C49.7354 7.51041 49.8277 7.51953 49.9201 7.51952C50.0468 7.52944 50.174 7.50897 50.2912 7.45981C50.4083 7.41065 50.512 7.33424 50.5937 7.2369C50.7432 7.03894 50.8206 6.7959 50.8132 6.54797L50.8126 6.54864ZM55.4588 7.93049H54.7812C54.7411 7.66138 54.6766 7.39649 54.5884 7.13915H53.6108C53.5182 7.39563 53.4513 7.66072 53.4113 7.93049H52.7743C52.7743 7.87552 52.939 7.4242 53.2684 6.57656C53.4655 6.12183 53.6306 5.65387 53.7624 5.1761H54.5604C54.6809 5.6451 54.8303 6.10615 55.008 6.55661C55.1855 7.005 55.3363 7.46354 55.4595 7.92982L55.4588 7.93049ZM54.4813 6.73349C54.3404 6.34632 54.2196 5.95212 54.1195 5.55247H54.0856C54.0856 5.60744 53.9609 6.00112 53.7113 6.73349H54.4813ZM57.9273 5.89562C57.9369 6.04228 57.9071 6.18885 57.8411 6.32015C57.775 6.45145 57.675 6.5627 57.5515 6.64239C57.2744 6.8105 56.9544 6.89437 56.6305 6.88379C56.564 6.88379 56.5169 6.88378 56.4889 6.87979C56.4889 7.14579 56.4966 7.49558 56.5121 7.92915H55.9177C55.9359 7.52173 55.9452 7.04139 55.9456 6.48812C55.9456 5.98051 55.9363 5.54249 55.9177 5.17409H56.2861C56.3384 5.17409 56.4386 5.17209 56.5867 5.1681C56.7347 5.16411 56.8631 5.16212 56.9717 5.16212C57.211 5.15442 57.4473 5.21784 57.6506 5.34433C57.7414 5.40371 57.8149 5.48604 57.8636 5.58297C57.9123 5.6799 57.9345 5.78799 57.9279 5.89627L57.9273 5.89562ZM57.3813 6.01198C57.3813 5.71008 57.1818 5.55913 56.7828 5.55913C56.6763 5.55984 56.5701 5.57053 56.4656 5.59105C56.4811 5.85704 56.4889 6.15895 56.4889 6.49676C56.5242 6.49676 56.5654 6.50074 56.6119 6.50074C57.1253 6.50119 57.3819 6.3385 57.3819 6.01265L57.3813 6.01198ZM60.4648 5.89562C60.4744 6.04221 60.4448 6.1887 60.3789 6.31998C60.3129 6.45127 60.2131 6.56257 60.0898 6.64239C59.8125 6.81055 59.4923 6.89443 59.1681 6.88379C59.1016 6.88379 59.0544 6.88378 59.0265 6.87979C59.0265 7.14579 59.0343 7.49558 59.0498 7.92915H58.4552C58.4734 7.52173 58.4827 7.04139 58.4832 6.48812C58.4832 5.98051 58.4739 5.54249 58.4552 5.17409H58.825C58.8773 5.17409 58.9775 5.17209 59.1256 5.1681C59.2739 5.16411 59.4022 5.16212 59.5106 5.16212C59.75 5.15442 59.9862 5.21784 60.1896 5.34433C60.2801 5.40387 60.3533 5.48627 60.4018 5.58319C60.4502 5.68012 60.4723 5.78811 60.4656 5.89627L60.4648 5.89562ZM59.9189 6.01198C59.9189 5.71008 59.7194 5.55913 59.3204 5.55913C59.2139 5.55984 59.1077 5.57053 59.0032 5.59105C59.0187 5.85704 59.0265 6.15895 59.0265 6.49676C59.0617 6.49676 59.103 6.50074 59.1495 6.50074C59.6629 6.50119 59.9196 6.3385 59.9196 6.01265L59.9189 6.01198ZM64.6137 6.50074C64.6269 6.89823 64.4836 7.28504 64.2147 7.57804C64.0911 7.71568 63.9392 7.82509 63.7695 7.89887C63.5998 7.97265 63.4162 8.00905 63.2312 8.00562C63.0566 8.00957 62.883 7.97668 62.7219 7.90908C62.5608 7.84148 62.4158 7.74068 62.2962 7.61327C62.1706 7.4802 62.0727 7.32351 62.0081 7.15228C61.9434 6.98105 61.9135 6.79869 61.9199 6.61579C61.9068 6.21832 62.05 5.83155 62.3189 5.53851C62.4427 5.40082 62.5946 5.29138 62.7645 5.2176C62.9343 5.14382 63.1179 5.10743 63.3031 5.11091C63.4777 5.10696 63.6511 5.13981 63.8122 5.20729C63.9733 5.27477 64.1184 5.37539 64.238 5.50261C64.364 5.63577 64.4622 5.79265 64.5269 5.96413C64.5917 6.13561 64.6216 6.31824 64.6151 6.50141L64.6137 6.50074ZM64.0299 6.56193C64.0417 6.30344 63.9613 6.04915 63.8031 5.8444C63.7376 5.75846 63.6531 5.68892 63.5562 5.64125C63.4592 5.59359 63.3525 5.56911 63.2445 5.56976C63.1413 5.57061 63.0397 5.59625 62.9484 5.6445C62.8571 5.69276 62.7788 5.76223 62.7199 5.84708C62.5704 6.04914 62.4941 6.29611 62.5037 6.5473C62.4922 6.80544 62.5729 7.05926 62.7312 7.26349C62.7963 7.34953 62.8806 7.41926 62.9773 7.46716C63.074 7.51505 63.1805 7.5398 63.2884 7.53947C63.3918 7.53853 63.4935 7.51271 63.5848 7.46422C63.6761 7.41572 63.7544 7.34596 63.8131 7.26083C63.9629 7.05957 64.0398 6.81335 64.0312 6.5626L64.0299 6.56193ZM67.4818 7.92915H66.9592C66.7981 7.60402 66.6031 7.29686 66.3773 7.0128C66.0923 6.64755 65.8588 6.24476 65.6837 5.8158H65.6498C65.6833 6.09387 65.7011 6.37362 65.703 6.6537C65.703 7.00215 65.7127 7.42687 65.7322 7.92783H65.2116C65.2329 7.49071 65.2435 7.01035 65.2435 6.48678C65.2435 5.97208 65.2329 5.53408 65.2116 5.17277H65.84C65.9744 5.49263 66.1502 5.79352 66.3626 6.06783C66.6216 6.41678 66.8363 6.79652 67.0017 7.19832H67.0336C67.0018 6.91724 66.9849 6.63466 66.9831 6.35179C66.9831 5.96964 66.9731 5.57753 66.9532 5.17543H67.4851C67.4652 5.52521 67.4555 5.96321 67.4559 6.48944C67.4564 7.01567 67.4655 7.4958 67.4832 7.92982L67.4818 7.92915Z" fill="#F9F9FA"/>
<defs>
<linearGradient id="paint0_linear" x1="25.9655" y1="38.7193" x2="25.9655" y2="36.8669" gradientUnits="userSpaceOnUse">
<stop stop-color="#257CB0"/>
<stop offset="0.286" stop-color="#4A93B5"/>
<stop offset="0.767" stop-color="#78BCBB"/>
<stop offset="1" stop-color="#89CFBD"/>
</linearGradient>
<linearGradient id="paint1_linear" x1="25.4952" y1="38.2473" x2="26.6945" y2="38.2473" gradientUnits="userSpaceOnUse">
<stop stop-color="#52C1AD"/>
<stop offset="1" stop-color="#DEE89A"/>
</linearGradient>
<linearGradient id="paint2_linear" x1="26.0949" y1="37.7827" x2="26.0949" y2="36.8497" gradientUnits="userSpaceOnUse">
<stop stop-color="#EC413D"/>
<stop offset="0.167" stop-color="#DA4452"/>
<stop offset="0.575" stop-color="#B0487A"/>
<stop offset="0.862" stop-color="#954A92"/>
<stop offset="1" stop-color="#8A4A9D"/>
</linearGradient>
<linearGradient id="paint3_linear" x1="26.7885" y1="38.035" x2="26.7885" y2="37.5374" gradientUnits="userSpaceOnUse">
<stop stop-color="#F58879"/>
<stop offset="0.119" stop-color="#F69079"/>
<stop offset="0.713" stop-color="#FCB877"/>
<stop offset="1" stop-color="#FEC874"/>
</linearGradient>
</defs>
</svg>
