<svg width="108" height="32" viewBox="0 0 108 32" fill="none" xmlns="http://www.w3.org/2000/svg">
<path fill-rule="evenodd" clip-rule="evenodd" d="M3.78313 31.9814H104.138C104.634 31.9817 105.126 31.884 105.585 31.6941C106.044 31.5041 106.461 31.2256 106.813 30.8744C107.164 30.5232 107.443 30.1062 107.633 29.6472C107.823 29.1883 107.921 28.6964 107.921 28.1996V3.7818C107.921 3.28503 107.823 2.79311 107.633 2.33416C107.443 1.8752 107.164 1.45821 106.813 1.107C106.461 0.755792 106.044 0.477258 105.585 0.287314C105.126 0.0973696 104.634 -0.000261061 104.138 5.24266e-07H3.78313C3.28636 -0.000261061 2.79441 0.0973696 2.33539 0.287314C1.87636 0.477258 1.45927 0.755792 1.10794 1.107C0.756608 1.45821 0.477927 1.8752 0.287822 2.33416C0.0977163 2.79311 -8.72609e-05 3.28503 5.84175e-08 3.7818V28.1996C-8.72609e-05 28.6964 0.0977163 29.1883 0.287822 29.6472C0.477927 30.1062 0.756608 30.5232 1.10794 30.8744C1.45927 31.2256 1.87636 31.5041 2.33539 31.6941C2.79441 31.884 3.28636 31.9817 3.78313 31.9814ZM106.984 29.3711C107.137 28.9995 107.215 28.6013 107.214 28.1993L107.215 28.196L107.232 3.77819C107.233 3.37433 107.154 2.97435 106.999 2.60116C106.845 2.22797 106.618 1.88891 106.333 1.60339C106.047 1.31788 105.708 1.09153 105.335 0.937298C104.961 0.783069 104.561 0.703996 104.157 0.704608H3.80038C2.98501 0.706192 2.20351 1.03094 1.62713 1.60768C1.05076 2.18443 0.726521 2.96614 0.725467 3.78152V28.1993C0.726426 28.6021 0.806732 29.0007 0.961797 29.3725C1.11686 29.7442 1.34365 30.0818 1.6292 30.3658C1.91475 30.6499 2.25347 30.8749 2.62601 31.028C2.99854 31.1812 3.3976 31.2594 3.80038 31.2583H104.155C104.557 31.2592 104.956 31.1808 105.327 31.0274C105.699 30.874 106.036 30.6487 106.321 30.3645C106.605 30.0802 106.83 29.7426 106.984 29.3711Z" fill="#A6A6A6"/>
<path d="M24.2225 15.5231C24.2324 14.7564 24.4453 14.0047 24.8414 13.3383C25.2375 12.6719 25.8038 12.1127 26.4871 11.7129C26.0531 11.1186 25.4798 10.6299 24.8131 10.2859C24.1464 9.94192 23.4048 9.75215 22.6478 9.73182C21.0376 9.56227 19.4806 10.663 18.6497 10.663C17.8187 10.663 16.5444 9.75008 15.1822 9.78268C14.3012 9.81226 13.4431 10.0583 12.6902 10.4972C11.9372 10.9361 11.3149 11.553 10.883 12.2887C9.02565 15.3705 10.4062 19.8922 12.1921 22.3643C13.0775 23.5837 14.1203 24.9381 15.4825 24.8873C16.8093 24.8364 17.3045 24.0748 18.9146 24.0748C20.507 24.0748 20.9668 24.8873 22.3644 24.854C23.7947 24.8371 24.6999 23.6346 25.5492 22.3989C26.1879 21.5305 26.6777 20.57 27 19.5538C26.1775 19.2137 25.4766 18.6511 24.9832 17.9352C24.4898 17.2192 24.2254 16.3809 24.2225 15.5231ZM21.6043 8.08918C22.379 7.19491 22.7599 6.04706 22.6661 4.88867C21.4778 5.01275 20.3803 5.55603 19.5875 6.41263C19.2023 6.8322 18.9072 7.32032 18.719 7.8491C18.5309 8.37789 18.4534 8.93698 18.491 9.49445C19.0874 9.5023 19.6778 9.37981 20.2173 9.13629C20.7568 8.89278 21.2311 8.53466 21.6043 8.08918Z" fill="white"/>
<path d="M43.0154 24.7898H41.1923L40.1866 21.6737H36.7213L35.7677 24.7898H34L37.432 14.1819H39.564L43.0154 24.7898ZM39.895 20.365L38.9935 17.593C38.8894 17.3179 38.7159 16.6462 38.4563 15.5961H38.4216C38.3175 16.0436 38.144 16.7152 37.9191 17.593L37.0349 20.365H39.895ZM51.8399 20.8642C51.9001 21.9914 51.5146 23.0972 50.7655 23.9458C50.465 24.2731 50.0978 24.533 49.6882 24.7082C49.2787 24.8833 48.8363 24.9697 48.3905 24.9615C47.9589 24.9965 47.5259 24.914 47.1379 24.7229C46.75 24.5318 46.4217 24.2393 46.1884 23.8769V27.8887H44.4894V19.6417C44.4894 18.8321 44.4721 17.9888 44.4227 17.1282H45.9308L46.0349 18.3336H46.0696C46.3276 17.938 46.6751 17.608 47.0845 17.3698C47.4938 17.1316 47.9535 16.9918 48.4269 16.9618C48.9003 16.9317 49.3743 17.0121 49.8108 17.1965C50.2473 17.3809 50.6344 17.6643 50.941 18.024C51.5687 18.836 51.8879 19.842 51.8425 20.8649L51.8399 20.8642ZM50.1049 20.9305C50.1282 20.2801 49.953 19.6378 49.6023 19.0881C49.4369 18.8485 49.214 18.6538 48.9537 18.5214C48.6933 18.3891 48.4039 18.3234 48.1116 18.3303C47.6935 18.331 47.2888 18.4772 46.9678 18.7433C46.6187 19.0198 46.3792 19.4102 46.2918 19.8452C46.2461 20.0142 46.217 20.1871 46.2051 20.3617V21.6386C46.1912 22.1577 46.3771 22.6625 46.7249 23.0501C46.8927 23.2352 47.0989 23.3819 47.3294 23.48C47.5598 23.5781 47.809 23.6253 48.0596 23.6183C48.3533 23.6305 48.6453 23.569 48.9089 23.4396C49.1724 23.3102 49.399 23.117 49.5676 22.8777C49.9542 22.3046 50.1425 21.622 50.1042 20.9332L50.1049 20.9305ZM60.7151 20.8642C60.7753 21.9914 60.3898 23.0972 59.6407 23.9458C59.3402 24.2731 58.973 24.533 58.5635 24.7082C58.1539 24.8833 57.7115 24.9697 57.2657 24.9615C56.8341 24.9965 56.4011 24.914 56.0132 24.7229C55.6252 24.5318 55.2969 24.2393 55.0636 23.8769V27.8887H53.3473V19.6417C53.3473 18.8321 53.33 17.9888 53.2806 17.1282H54.7887L54.8928 18.3336H54.9275C55.1855 17.938 55.533 17.608 55.9423 17.3698C56.3516 17.1316 56.8114 16.9918 57.2848 16.9618C57.7582 16.9317 58.2321 17.0121 58.6687 17.1965C59.1052 17.3809 59.4923 17.6643 59.7989 18.024C60.43 18.8346 60.7535 19.8402 60.7124 20.8642H60.7151ZM58.9647 20.9305C58.9881 20.2801 58.8129 19.6378 58.4622 19.0881C58.2968 18.8485 58.0738 18.6538 57.8135 18.5214C57.5532 18.3891 57.2638 18.3234 56.9715 18.3303C56.5534 18.331 56.1487 18.4772 55.8277 18.7433C55.4786 19.0198 55.2391 19.4102 55.1517 19.8452C55.103 20.0135 55.0739 20.1868 55.065 20.3617V21.6386C55.0511 22.1577 55.237 22.6625 55.5848 23.0501C55.7526 23.2352 55.9588 23.3819 56.1893 23.48C56.4197 23.5781 56.6688 23.6253 56.9194 23.6183C57.2131 23.6305 57.5053 23.5691 57.7688 23.4397C58.0324 23.3102 58.2589 23.117 58.4275 22.8777C58.8134 22.3043 59.0009 21.6218 58.962 20.9332L58.9647 20.9305ZM70.6126 21.8083C70.6267 22.2228 70.5485 22.6352 70.3837 23.0161C70.2189 23.3971 69.9714 23.7372 69.659 24.0121C68.84 24.6738 67.8004 25.0051 66.7469 24.9403C65.7794 24.9803 64.8196 24.7538 63.9735 24.2859L64.3739 22.8744C65.123 23.3166 65.9811 23.5432 66.8523 23.5288C67.39 23.5628 67.9229 23.4107 68.3604 23.0985C68.5354 22.9621 68.6753 22.7865 68.7687 22.5859C68.8621 22.3854 68.9063 22.1657 68.8976 21.9449C68.9009 21.7432 68.8626 21.5429 68.7851 21.3564C68.7077 21.1699 68.5927 21.001 68.4472 20.8603C68.018 20.4878 67.5165 20.2067 66.9738 20.0342C65.1017 19.3455 64.1657 18.3289 64.1657 16.9844C64.1543 16.577 64.2375 16.1725 64.4089 15.8023C64.5803 15.432 64.8352 15.106 65.154 14.8495C65.8989 14.272 66.8274 13.9789 67.7712 14.0234C68.6086 13.997 69.4402 14.1681 70.1982 14.5227L69.7651 15.8997C69.1355 15.5693 68.4317 15.4034 67.7198 15.4177C67.2071 15.3907 66.7019 15.5497 66.2984 15.8652C66.162 15.9866 66.0529 16.1352 65.9783 16.3013C65.9037 16.4674 65.8652 16.6473 65.8654 16.8292C65.8592 17.0271 65.8999 17.2237 65.9841 17.4031C66.0684 17.5825 66.1939 17.7398 66.3505 17.8622C66.8227 18.2188 67.3494 18.4977 67.9107 18.6883C68.6803 18.9526 69.3755 19.3953 69.9386 19.9798C70.1685 20.2246 70.3463 20.513 70.4617 20.8276C70.577 21.1422 70.6274 21.4766 70.6099 21.811L70.6126 21.8083ZM76.2807 18.4164H74.3916V22.1352C74.3916 23.0819 74.7212 23.5467 75.3972 23.5467C75.6544 23.5583 75.9119 23.5292 76.1599 23.4605L76.212 24.752C75.7813 24.8905 75.3299 24.9546 74.8774 24.9416C74.585 24.9578 74.2925 24.9108 74.0201 24.8038C73.7478 24.6967 73.502 24.5323 73.2999 24.3217C72.8619 23.7255 72.6585 22.9907 72.728 22.2559V18.3992H71.6016V17.1302H72.728V15.7379L74.4096 15.2387V17.1495H76.2927L76.2807 18.4164ZM84.7742 20.8954C84.812 21.9532 84.4466 22.9862 83.7512 23.788C83.3943 24.1755 82.9566 24.481 82.4686 24.6832C81.9806 24.8854 81.4541 24.9795 80.9258 24.9589C80.4204 24.9789 79.9166 24.8891 79.4496 24.6958C78.9826 24.5025 78.5636 24.2104 78.2219 23.8398C77.5353 23.0611 77.1754 22.0505 77.2163 21.0161C77.1731 19.9493 77.5454 18.9071 78.256 18.1062C78.6105 17.7273 79.0437 17.4294 79.5256 17.2332C80.0074 17.037 80.5264 16.9471 81.0467 16.9698C81.5547 16.9504 82.061 17.0407 82.5306 17.2345C83.0002 17.4283 83.4219 17.7209 83.7666 18.0922C84.455 18.863 84.8151 19.8692 84.7709 20.8987L84.7742 20.8954ZM83.0065 20.9299C83.0228 20.2979 82.8672 19.6733 82.5561 19.1219C82.4097 18.8423 82.1878 18.6089 81.9153 18.4477C81.6427 18.2866 81.3304 18.2041 81.0133 18.2096C80.6911 18.2015 80.3729 18.2825 80.0944 18.4436C79.8158 18.6047 79.5878 18.8395 79.4358 19.1219C79.1148 19.682 78.9587 20.3204 78.9853 20.9643C78.9691 21.5963 79.1247 22.2209 79.4358 22.7723C79.5881 23.0498 79.8133 23.2811 80.0873 23.4417C80.3613 23.6022 80.674 23.6861 80.9921 23.6843C81.3102 23.6825 81.6219 23.5952 81.8941 23.4316C82.1663 23.268 82.3888 23.0342 82.5381 22.7551C82.8591 22.202 83.0201 21.5715 83.0032 20.9332L83.0065 20.9299ZM90.3383 18.6226C90.1613 18.5884 89.9814 18.5711 89.8011 18.5709C89.5315 18.5561 89.2626 18.6101 89.0199 18.7276C88.7772 18.8452 88.5688 19.0224 88.4144 19.2425C88.115 19.6905 87.9636 20.22 87.9813 20.7575V24.7693H86.2657V19.5356C86.2657 18.7261 86.2483 17.9344 86.2136 17.1249H87.7037L87.7705 18.5882H87.8225C87.9808 18.1124 88.2762 17.6933 88.672 17.3828C89.0294 17.1221 89.4592 16.9778 89.9025 16.9698C90.0475 16.972 90.1921 16.9835 90.3356 17.0043L90.3383 18.6226ZM97.9996 20.6023C98.0032 20.8622 97.9809 21.1219 97.9329 21.3774H92.802C92.7874 21.7042 92.8469 22.03 92.9759 22.331C93.1049 22.632 93.3002 22.9004 93.5473 23.1164C94.0244 23.4907 94.6219 23.6803 95.229 23.6501C95.9389 23.6595 96.6444 23.537 97.309 23.2888L97.5692 24.4597C96.7488 24.786 95.8703 24.9439 94.9868 24.9238C94.4708 24.9541 93.9541 24.8763 93.4703 24.6954C92.9866 24.5144 92.5465 24.2344 92.1787 23.8736C91.8311 23.4954 91.5619 23.0529 91.3865 22.5714C91.2111 22.0898 91.1329 21.5787 91.1564 21.0671C91.1146 20.0257 91.4533 19.0044 92.11 18.1917C92.428 17.7907 92.8376 17.4707 93.3047 17.2581C93.7719 17.0456 94.2832 16.9465 94.7965 16.9691C95.2858 16.9415 95.774 17.0395 96.2142 17.2536C96.6543 17.4677 97.0315 17.7908 97.3096 18.1917C97.7914 18.9031 98.032 19.7489 97.9963 20.6057L97.9996 20.6023ZM96.3701 20.1548C96.3934 19.6957 96.2786 19.2401 96.0404 18.8461C95.9006 18.6137 95.6985 18.4246 95.4566 18.2999C95.2148 18.1752 94.9428 18.1198 94.6711 18.14C94.4035 18.1343 94.1386 18.1942 93.8998 18.3144C93.661 18.4345 93.4556 18.6112 93.3018 18.8288C93.013 19.2155 92.8389 19.6749 92.7993 20.1548H96.3701ZM36.2375 10.434C35.8263 10.4412 35.415 10.419 35.007 10.3677V5.23675C35.4893 5.16805 35.9758 5.13349 36.463 5.13332C38.4216 5.13332 39.3231 6.09731 39.3231 7.66397C39.3238 9.44942 38.2481 10.434 36.2375 10.434ZM36.5151 5.7857C36.2887 5.78305 36.0624 5.80036 35.8391 5.83742V9.72854C36.0292 9.74609 36.2202 9.75185 36.411 9.74578C37.6935 9.74578 38.4216 9.02245 38.4216 7.66265C38.4513 7.40752 38.4222 7.14902 38.3367 6.90668C38.2511 6.66433 38.1112 6.44448 37.9276 6.2637C37.744 6.08293 37.5214 5.94597 37.2767 5.86317C37.032 5.78036 36.7716 5.75387 36.5151 5.7857ZM42.1312 10.4684C41.8809 10.4717 41.6327 10.4231 41.4024 10.3257C41.1721 10.2284 40.9647 10.0844 40.7935 9.903C40.6223 9.72161 40.491 9.50677 40.408 9.27218C40.325 9.03758 40.2921 8.78838 40.3114 8.54046C40.2897 8.28375 40.3228 8.02538 40.4086 7.78229C40.4944 7.5392 40.631 7.31688 40.8094 7.12994C40.9878 6.94299 41.204 6.79564 41.4437 6.69754C41.6835 6.59945 41.9414 6.55283 42.2006 6.56075C42.4517 6.55432 42.7014 6.60075 42.9332 6.69701C43.1651 6.79327 43.3738 6.93717 43.5457 7.11926C43.7175 7.30135 43.8487 7.51751 43.9305 7.75354C44.0123 7.98957 44.0429 8.24012 44.0203 8.48874C44.0386 8.74454 44.0031 9.00131 43.916 9.2427C43.8288 9.4841 43.6921 9.70481 43.5143 9.89076C43.3366 10.0767 43.1218 10.2238 42.8836 10.3227C42.6455 10.4216 42.3892 10.4701 42.1312 10.4651V10.4684ZM42.1659 7.16275C41.5593 7.16275 41.1602 7.73094 41.1602 8.52256C41.1602 9.2976 41.5606 9.86578 42.1485 9.86578C42.7364 9.86578 43.1368 9.26312 43.1368 8.50598C43.1535 7.72762 42.7551 7.15944 42.1659 7.15944V7.16275ZM50.3297 6.62904L49.1513 10.3823H48.3712L47.8861 8.74665C47.7646 8.34885 47.6605 7.93779 47.5737 7.52408H47.5564C47.4871 7.93961 47.3826 8.34859 47.2441 8.74665L46.7242 10.3823H45.9442L44.8351 6.62904H45.7026L46.1357 8.41912C46.2398 8.84941 46.3265 9.24522 46.3959 9.62445H46.4133C46.48 9.31483 46.5694 8.91836 46.7256 8.41912L47.2628 6.62904H47.9561L48.4759 8.38531C48.5974 8.81582 48.7015 9.22909 48.7882 9.62512H48.8056C48.8659 9.2068 48.9528 8.7927 49.0659 8.38531L49.5329 6.62904H50.3297ZM54.6806 10.3823H53.8485V8.23017C53.8485 7.55856 53.5882 7.2317 53.0857 7.2317C52.9694 7.23527 52.8549 7.26181 52.7489 7.30977C52.643 7.35773 52.5477 7.42615 52.4686 7.51106C52.3896 7.59597 52.3283 7.69565 52.2884 7.80431C52.2485 7.91298 52.2308 8.02844 52.2362 8.14399V10.3823H51.3867V7.69646C51.3867 7.3696 51.3867 7.00761 51.352 6.62904H52.0974L52.1321 7.21446H52.1495C52.2743 7.0115 52.4503 6.84438 52.66 6.72963C52.8697 6.61487 53.1059 6.55643 53.3453 6.56009C54.1427 6.56009 54.6626 7.16275 54.6626 8.14399L54.6806 10.3823ZM57.0035 10.3823H56.154V4.89H57.0035V10.3823ZM60.0731 10.4684C59.8229 10.4717 59.5747 10.4231 59.3444 10.3257C59.114 10.2284 58.9067 10.0844 58.7355 9.903C58.5642 9.72161 58.433 9.50677 58.3499 9.27218C58.2669 9.03758 58.2341 8.78838 58.2534 8.54046C58.2316 8.28375 58.2647 8.02538 58.3506 7.78229C58.4364 7.5392 58.5729 7.31688 58.7513 7.12994C58.9297 6.94299 59.1459 6.79564 59.3857 6.69754C59.6254 6.59945 59.8834 6.55283 60.1425 6.56075C60.3937 6.55432 60.6434 6.60075 60.8752 6.69701C61.107 6.79327 61.3157 6.93717 61.4876 7.11926C61.6595 7.30135 61.7906 7.51751 61.8724 7.75354C61.9542 7.98957 61.9849 8.24012 61.9623 8.48874C61.9806 8.74471 61.945 9.00165 61.8578 9.24319C61.7705 9.48472 61.6336 9.70553 61.4556 9.89151C61.2776 10.0775 61.0626 10.2246 60.8242 10.3233C60.5858 10.4221 60.3294 10.4704 60.0711 10.4651L60.0731 10.4684ZM60.1078 7.16275C59.5012 7.16275 59.1022 7.73094 59.1022 8.52256C59.1022 9.2976 59.5026 9.86578 60.0905 9.86578C60.6784 9.86578 61.0787 9.26312 61.0787 8.50598C61.0781 7.72762 60.6951 7.15944 60.1058 7.15944L60.1078 7.16275ZM65.2734 10.3823L65.2067 9.95197H65.1894C65.0616 10.1222 64.8935 10.2583 64.7001 10.3485C64.5066 10.4386 64.2937 10.4798 64.0803 10.4684C63.93 10.4771 63.7794 10.4549 63.638 10.4033C63.4967 10.3516 63.3675 10.2717 63.2586 10.1683C63.1497 10.0649 63.0634 9.94043 63.005 9.8025C62.9466 9.66457 62.9174 9.51617 62.9192 9.36655C62.9192 8.43835 63.734 7.95503 65.138 7.95503V7.88873C65.138 7.38949 64.8777 7.14816 64.3579 7.14816C64.0081 7.13875 63.6636 7.23467 63.3696 7.4233L63.1961 6.87235C63.588 6.63951 64.0399 6.52587 64.496 6.5455C65.4843 6.5455 65.9868 7.06197 65.9868 8.09492V9.47197C65.982 9.77118 65.9994 10.0703 66.0389 10.367L65.2761 10.3842L65.2734 10.3823ZM65.152 8.50532C64.2178 8.50532 63.7507 8.72941 63.7507 9.26312C63.7423 9.34055 63.7512 9.41886 63.7767 9.49248C63.8023 9.56611 63.8438 9.63325 63.8984 9.68913C63.953 9.74501 64.0193 9.78825 64.0926 9.81581C64.1659 9.84336 64.2444 9.85454 64.3225 9.84854C64.5333 9.8551 64.7384 9.77952 64.8938 9.63793C65.0493 9.49634 65.1429 9.29996 65.1547 9.09074L65.152 8.50532ZM70.0574 10.3823L70.0227 9.7796H70.0053C69.8924 9.99915 69.7175 10.1812 69.502 10.3036C69.2866 10.4259 69.0399 10.4832 68.7922 10.4684C67.8733 10.4684 67.1973 9.67616 67.1973 8.55769C67.1973 7.38684 67.8906 6.56075 68.8616 6.56075C69.071 6.54165 69.2817 6.57964 69.471 6.67064C69.6603 6.76164 69.821 6.90222 69.9359 7.07722H69.9533V4.88933H70.8028V9.36588C70.8028 9.72722 70.8201 10.072 70.8375 10.3816L70.0574 10.3823ZM69.9359 8.17846C69.9459 8.05566 69.9307 7.93213 69.8912 7.81537C69.8516 7.69861 69.7886 7.59107 69.7059 7.49928C69.6231 7.40749 69.5225 7.33338 69.41 7.28145C69.2976 7.22952 69.1757 7.20087 69.0517 7.19723C68.4278 7.19723 68.0461 7.74818 68.0461 8.52322C68.0461 9.28102 68.4465 9.79749 69.0344 9.79749C69.1601 9.79229 69.2835 9.76214 69.3973 9.70882C69.5111 9.65551 69.613 9.58011 69.697 9.48706C69.781 9.39401 69.8455 9.2852 69.8865 9.16704C69.9275 9.04887 69.9443 8.92375 69.9359 8.79902V8.17912V8.17846ZM76.1239 10.4684C75.8736 10.4717 75.6254 10.4231 75.3951 10.3257C75.1648 10.2284 74.9575 10.0844 74.7863 9.903C74.6151 9.72161 74.4838 9.50677 74.4008 9.27218C74.3178 9.03758 74.2849 8.78838 74.3042 8.54046C74.2824 8.28375 74.3155 8.02538 74.4013 7.78229C74.4872 7.5392 74.6238 7.31688 74.8022 7.12994C74.9805 6.94299 75.1967 6.79564 75.4365 6.69754C75.6762 6.59945 75.9341 6.55283 76.1933 6.56075C76.4445 6.55432 76.6942 6.60075 76.926 6.69701C77.1578 6.79327 77.3665 6.93717 77.5384 7.11926C77.7103 7.30135 77.8414 7.51751 77.9232 7.75354C78.005 7.98957 78.0356 8.24012 78.0131 8.48874C78.0314 8.74471 77.9958 9.00165 77.9085 9.24319C77.8213 9.48472 77.6843 9.70553 77.5064 9.89151C77.3284 10.0775 77.1134 10.2246 76.875 10.3233C76.6366 10.4221 76.3801 10.4704 76.1219 10.4651L76.1239 10.4684ZM76.1586 7.16275C75.552 7.16275 75.1703 7.73094 75.1703 8.52256C75.1703 9.2976 75.5707 9.86578 76.1586 9.86578C76.7465 9.86578 77.1469 9.26312 77.1469 8.50598C77.1269 7.72762 76.7458 7.15944 76.1593 7.15944L76.1586 7.16275ZM82.5374 10.3823H81.6879V8.23017C81.6879 7.55856 81.4277 7.2317 80.9252 7.2317C80.8099 7.23617 80.6966 7.26346 80.5921 7.31196C80.4875 7.36046 80.3937 7.4292 80.3162 7.51416C80.2387 7.59912 80.1791 7.69858 80.1408 7.80673C80.1024 7.91487 80.0862 8.02953 80.0931 8.14399V10.3823H79.2436V7.69646C79.2436 7.3696 79.2436 7.00761 79.2089 6.62904H79.9543L79.989 7.21446H80.0063C80.1311 7.0115 80.3071 6.84438 80.5168 6.72963C80.7265 6.61487 80.9627 6.55643 81.2021 6.56009C81.9995 6.56009 82.5194 7.16275 82.5194 8.14399V10.3823H82.5374ZM88.1882 7.24894H87.2693V9.07417C87.2693 9.53827 87.4255 9.76302 87.7544 9.76302C87.8822 9.76251 88.0097 9.75097 88.1355 9.72854L88.1528 10.3657C87.9409 10.4364 87.7173 10.4657 87.4942 10.4519C86.8356 10.4519 86.4365 10.0905 86.4365 9.14312V7.24894H85.882V6.62904H86.4358V5.94018L87.268 5.69885V6.62705H88.1869L88.1882 7.24894ZM92.6431 10.3823H91.811V8.24609C91.811 7.57447 91.5508 7.23037 91.0483 7.23037C90.9315 7.22755 90.8155 7.24919 90.7077 7.29386C90.5999 7.33854 90.5028 7.40526 90.4226 7.48969C90.3425 7.57411 90.2812 7.67435 90.2426 7.78388C90.204 7.89341 90.1891 8.00978 90.1988 8.12542V10.3982H89.3667V4.88867H90.1988V7.14286H90.2161C90.3325 6.94638 90.5003 6.78494 90.7017 6.67577C90.9032 6.56661 91.1307 6.51379 91.3599 6.52295C92.1574 6.52295 92.6425 7.14286 92.6425 8.12409L92.6431 10.3823ZM97.1995 8.71018H94.6691C94.6636 8.8646 94.6912 9.01842 94.7503 9.16134C94.8094 9.30427 94.8986 9.43301 95.0118 9.53896C95.125 9.6449 95.2597 9.72562 95.4068 9.77569C95.5539 9.82577 95.7101 9.84405 95.8649 9.82932C96.2131 9.82825 96.5588 9.77 96.8879 9.65694L97.0267 10.2424C96.6239 10.4024 96.1924 10.4786 95.7588 10.4665C95.5043 10.4857 95.2486 10.4498 95.0094 10.3612C94.7702 10.2726 94.5533 10.1334 94.3736 9.9532C94.1939 9.77304 94.0558 9.55623 93.9688 9.31779C93.8818 9.07936 93.8479 8.82498 93.8697 8.57228C93.8435 8.32153 93.8699 8.06813 93.9472 7.82801C94.0244 7.58789 94.1509 7.36626 94.3186 7.17707C94.4862 6.98787 94.6915 6.8352 94.9214 6.72868C95.1514 6.62215 95.4011 6.56407 95.6547 6.55809C96.6257 6.55809 97.2322 7.26419 97.2322 8.34819C97.237 8.46975 97.226 8.59141 97.1995 8.71018ZM96.4368 8.10752C96.4368 7.52209 96.1418 7.10905 95.6047 7.10905C95.3522 7.12762 95.1164 7.24135 94.9456 7.42697C94.7748 7.61258 94.6818 7.85604 94.6858 8.10752H96.4368Z" fill="white"/>
</svg>
